#Inrun.obj
#Sunday, April 07, 2019
#4:51:43 PM
#-------

#Inrun
#-------
g Inrun
v 0 0 1.325
v 0 0 -1.325
v -6.596534 1.282236 1.325
v -6.596534 1.282236 -1.325
v -7.486259 1.459369 1.325
v -7.486259 1.459369 -1.325
v -8.375984 1.644918 1.325
v -8.375984 1.644918 -1.325
v -9.265709 1.838919 1.325
v -9.265709 1.838919 -1.325
v -10.15543 2.041408 1.325
v -10.15543 2.041408 -1.325
v -11.04516 2.252428 1.325
v -11.04516 2.252428 -1.325
v -11.93488 2.472014 1.325
v -11.93488 2.472014 -1.325
v -12.82461 2.700184 1.325
v -12.82461 2.700184 -1.325
v -13.71433 2.936987 1.325
v -13.71433 2.936987 -1.325
v -14.60406 3.182441 1.325
v -14.60406 3.182441 -1.325
v -15.49378 3.436564 1.325
v -15.49378 3.436564 -1.325
v -16.38351 3.699394 1.325
v -16.38351 3.699394 -1.325
v -17.27323 3.970934 1.325
v -17.27323 3.970934 -1.325
v -18.16296 4.251204 1.325
v -18.16296 4.251204 -1.325
v -19.05268 4.54022 1.325
v -19.05268 4.54022 -1.325
v -19.94241 4.83798 1.325
v -19.94241 4.83798 -1.325
v -20.83213 5.144501 1.325
v -20.83213 5.144501 -1.325
v -21.72186 5.459775 1.325
v -21.72186 5.459775 -1.325
v -22.61158 5.783797 1.325
v -22.61158 5.783797 -1.325
v -23.5013 6.116568 1.325
v -23.5013 6.116568 -1.325
v -24.39103 6.458067 1.325
v -24.39103 6.458067 -1.325
v -25.28075 6.808278 1.325
v -25.28075 6.808278 -1.325
v -26.17048 7.167184 1.325
v -26.17048 7.167184 -1.325
v -27.0602 7.534755 1.325
v -27.0602 7.534755 -1.325
v -27.94993 7.910951 1.325
v -27.94993 7.910951 -1.325
v -28.83965 8.295747 1.325
v -28.83965 8.295747 -1.325
v -29.72938 8.689098 1.325
v -29.72938 8.689098 -1.325
v -30.6191 9.090944 1.325
v -30.6191 9.090944 -1.325
v -31.50883 9.501241 1.325
v -31.50883 9.501241 -1.325
v -32.39855 9.919918 1.325
v -32.39855 9.919918 -1.325
v -33.28828 10.34693 1.325
v -33.28828 10.34693 -1.325
v -34.178 10.78216 1.325
v -34.178 10.78216 -1.325
v -35.06773 11.22557 1.325
v -35.06773 11.22557 -1.325
v -35.95745 11.67706 1.325
v -35.95745 11.67706 -1.325
v -36.84718 12.13652 1.325
v -36.84718 12.13652 -1.325
v -37.7369 12.60387 1.325
v -37.7369 12.60387 -1.325
v -38.62663 13.07898 1.325
v -38.62663 13.07898 -1.325
v -39.51635 13.56176 1.325
v -39.51635 13.56176 -1.325
v -40.40607 14.05206 1.325
v -40.40607 14.05206 -1.325
v -41.2958 14.54977 1.325
v -41.2958 14.54977 -1.325
v -42.18552 15.05473 1.325
v -42.18552 15.05473 -1.325
v -43.07525 15.56682 1.325
v -43.07525 15.56682 -1.325
v -43.96497 16.08587 1.325
v -43.96497 16.08587 -1.325
v -44.8547 16.61171 1.325
v -44.8547 16.61171 -1.325
v -45.74442 17.14418 1.325
v -45.74442 17.14418 -1.325
v -46.63415 17.68312 1.325
v -46.63415 17.68312 -1.325
v -47.52387 18.22832 1.325
v -47.52387 18.22832 -1.325
v -48.4136 18.7796 1.325
v -48.4136 18.7796 -1.325
v -49.30332 19.33675 1.325
v -49.30332 19.33675 -1.325
v -50.19305 19.89957 1.325
v -50.19305 19.89957 -1.325
v -51.08277 20.46784 1.325
v -51.08277 20.46784 -1.325
v -51.9725 21.04135 1.325
v -51.9725 21.04135 -1.325
v -52.86222 21.61986 1.325
v -52.86222 21.61986 -1.325
v -53.75195 22.20314 1.325
v -53.75195 22.20314 -1.325
v -54.64167 22.79093 1.325
v -54.64167 22.79093 -1.325
v -55.53139 23.38301 1.325
v -55.53139 23.38301 -1.325
v -56.42112 23.9791 1.325
v -56.42112 23.9791 -1.325
v -57.31084 24.57895 1.325
v -57.31084 24.57895 -1.325
v -58.20057 25.18229 1.325
v -58.20057 25.18229 -1.325
v -59.09029 25.78885 1.325
v -59.09029 25.78885 -1.325
v -59.98002 26.39835 1.325
v -59.98002 26.39835 -1.325
v -60.86974 27.01052 1.325
v -60.86974 27.01052 -1.325
v -61.75947 27.62506 1.325
v -61.75947 27.62506 -1.325
v -62.64919 28.24169 1.325
v -62.64919 28.24169 -1.325
v -63.53892 28.86012 1.325
v -63.53892 28.86012 -1.325
v -64.42864 29.48005 1.325
v -64.42864 29.48005 -1.325
v -65.31837 30.10118 1.325
v -65.31837 30.10118 -1.325
v -66.20809 30.72322 1.325
v -66.20809 30.72322 -1.325
v -67.09782 31.34585 1.325
v -67.09782 31.34585 -1.325
v -67.98754 31.9688 1.325
v -67.98754 31.9688 -1.325
v -68.81327 32.54698 1.325
v -68.81327 32.54698 -1.325
v -69.63899 33.12516 1.325
v -69.63899 33.12516 -1.325
v -70.46472 33.70333 1.325
v -70.46472 33.70333 -1.325
v -71.29044 34.28152 1.325
v -71.29044 34.28152 -1.325
v -72.11617 34.8597 1.325
v -72.11617 34.8597 -1.325
v -72.94189 35.43787 1.325
v -72.94189 35.43787 -1.325
v -73.76762 36.01605 1.325
v -73.76762 36.01605 -1.325
v -74.59335 36.59423 1.325
v -74.59335 36.59423 -1.325
v -75.41908 37.17241 1.325
v -75.41908 37.17241 -1.325
v -76.2448 37.75059 1.325
v -76.2448 37.75059 -1.325
v -77.07053 38.32877 1.325
v -77.07053 38.32877 -1.325
v -77.89625 38.90695 1.325
v -77.89625 38.90695 -1.325
v -78.72198 39.48513 1.325
v -78.72198 39.48513 -1.325
v -79.5477 40.06331 1.325
v -79.5477 40.06331 -1.325
v -80.37343 40.64149 1.325
v -80.37343 40.64149 -1.325
v -81.19915 41.21967 1.325
v -81.19915 41.21967 -1.325
v -82.02488 41.79785 1.325
v -82.02488 41.79785 -1.325
v -82.8506 42.37603 1.325
v -82.8506 42.37603 -1.325
v -83.67633 42.95421 1.325
v -83.67633 42.95421 -1.325
v -84.50206 43.53239 1.325
v -84.50206 43.53239 -1.325
v -85.32778 44.11057 1.325
v -85.32778 44.11057 -1.325
v -86.1535 44.68874 1.325
v -86.1535 44.68874 -1.325
v -86.97923 45.26693 1.325
v -86.97923 45.26693 -1.325

vn -0.190809 -0.9816272 0
vn -0.190809 -0.9816272 0
vn -0.1917546 -0.9814429 0
vn -0.1910903 -0.9815724 0
vn -0.2011935 -0.9795516 0
vn -0.1982271 -0.9801561 0
vn -0.2100839 -0.9776834 0
vn -0.207122 -0.9783151 0
vn -0.2189606 -0.9757338 0
vn -0.2160033 -0.9763926 0
vn -0.2278254 -0.9737021 0
vn -0.2248717 -0.9743883 0
vn -0.2366722 -0.9715896 0
vn -0.2337257 -0.9723026 0
vn -0.2454849 -0.9694005 0
vn -0.2425519 -0.9701385 0
vn -0.2542773 -0.9671314 0
vn -0.2513477 -0.9678968 0
vn -0.2630351 -0.9647862 0
vn -0.2601211 -0.9655761 0
vn -0.2717461 -0.962369 0
vn -0.2688478 -0.9631827 0
vn -0.2804219 -0.9598769 0
vn -0.2775333 -0.960716 0
vn -0.2890444 -0.9573157 0
vn -0.2861775 -0.9581767 0
vn -0.2976112 -0.9546872 0
vn -0.2947613 -0.9555709 0
vn -0.3061235 -0.9519919 0
vn -0.3032924 -0.9528975 0
vn -0.3145663 -0.9492356 0
vn -0.3117605 -0.9501607 0
vn -0.322946 -0.9464173 0
vn -0.3201591 -0.9473639 0
vn -0.3312503 -0.943543 0
vn -0.3284917 -0.9445068 0
vn -0.339473 -0.9406159 0
vn -0.336741 -0.9415974 0
vn -0.347617 -0.9376366 0
vn -0.344911 -0.9386354 0
vn -0.3556717 -0.934611 0
vn -0.3529974 -0.9356243 0
vn -0.363631 -0.9315431 0
vn -0.3609885 -0.9325703 0
vn -0.3714967 -0.9284343 0
vn -0.3688851 -0.9294751 0
vn -0.37926 -0.9252902 0
vn -0.3766842 -0.9263418 0
vn -0.3869121 -0.9221166 0
vn -0.3843739 -0.9231775 0
vn -0.3944592 -0.9189135 0
vn -0.3919547 -0.9199845 0
vn -0.4018942 -0.9156861 0
vn -0.3994289 -0.9167641 0
vn -0.4092031 -0.9124433 0
vn -0.4067813 -0.9135256 0
vn -0.4163921 -0.9091851 0
vn -0.4140085 -0.9102731 0
vn -0.423453 -0.9059181 0
vn -0.4211144 -0.9070076 0
vn -0.4303904 -0.9026429 0
vn -0.428091 -0.9037357 0
vn -0.4371846 -0.8993718 0
vn -0.4349371 -0.9004608 0
vn -0.4438456 -0.8961033 0
vn -0.4416388 -0.897193 0
vn -0.4503654 -0.8928443 0
vn -0.4482088 -0.8939289 0
vn -0.4567398 -0.8896003 0
vn -0.4546308 -0.89068 0
vn -0.4629704 -0.8863737 0
vn -0.4609095 -0.8874472 0
vn -0.4690444 -0.8831747 0
vn -0.4670378 -0.8842375 0
vn -0.4749731 -0.8800004 0
vn -0.4730119 -0.881056 0
vn -0.4807415 -0.8768625 0
vn -0.4788377 -0.8779035 0
vn -0.4863559 -0.8737608 0
vn -0.4845005 -0.874791 0
vn -0.4918037 -0.8707061 0
vn -0.4900073 -0.8717183 0
vn -0.4970911 -0.8676984 0
vn -0.4953454 -0.8686962 0
vn -0.5022168 -0.8647417 0
vn -0.5005267 -0.8657212 0
vn -0.5071732 -0.8618441 0
vn -0.50554 -0.8628032 0
vn -0.5119576 -0.8590108 0
vn -0.5103819 -0.8599479 0
vn -0.516581 -0.8562383 0
vn -0.515057 -0.8571559 0
vn -0.521026 -0.8535408 0
vn -0.5195653 -0.8544307 0
vn -0.5252943 -0.8509206 0
vn -0.5238903 -0.8517858 0
vn -0.5293933 -0.8483766 0
vn -0.5280456 -0.8492159 0
vn -0.5333128 -0.8459181 0
vn -0.5320267 -0.8467276 0
vn -0.5370547 -0.8435475 0
vn -0.5358266 -0.844328 0
vn -0.5406203 -0.8412667 0
vn -0.5394514 -0.8420168 0
vn -0.5440066 -0.839081 0
vn -0.5428979 -0.8397988 0
vn -0.5472151 -0.836992 0
vn -0.5461651 -0.8376777 0
vn -0.5502359 -0.8350093 0
vn -0.5492504 -0.8356579 0
vn -0.5530769 -0.8331302 0
vn -0.552149 -0.8337455 0
vn -0.555735 -0.8313595 0
vn -0.5548698 -0.8319372 0
vn -0.5582121 -0.8296983 0
vn -0.5574061 -0.8302401 0
vn -0.5605047 -0.8281512 0
vn -0.5597613 -0.8286539 0
vn -0.5626122 -0.826721 0
vn -0.5619301 -0.8271847 0
vn -0.5645344 -0.8254095 0
vn -0.5639143 -0.8258334 0
vn -0.5662715 -0.8242189 0
vn -0.5657129 -0.8246023 0
vn -0.5678253 -0.8231491 0
vn -0.5673276 -0.8234922 0
vn -0.5691923 -0.8222045 0
vn -0.5687576 -0.8225053 0
vn -0.570375 -0.8213844 0
vn -0.5700009 -0.821644 0
vn -0.5713692 -0.8206931 0
vn -0.571059 -0.820909 0
vn -0.5721762 -0.8201308 0
vn -0.5719278 -0.820304 0
vn -0.5727993 -0.8196957 0
vn -0.572612 -0.8198266 0
vn -0.5732327 -0.8193926 0
vn -0.5731097 -0.8194787 0
vn -0.5734831 -0.8192174 0
vn -0.5734195 -0.819262 0
vn -0.5735654 -0.8191599 0
vn -0.5735558 -0.8191665 0
vn -0.5735769 -0.8191518 0
vn -0.5735762 -0.8191523 0
vn -0.5735753 -0.8191529 0
vn -0.5735765 -0.8191521 0
vn -0.5735781 -0.8191509 0
vn -0.5735762 -0.8191523 0
vn -0.5735762 -0.8191523 0
vn -0.5735781 -0.8191509 0
vn -0.5735765 -0.8191521 0
vn -0.5735753 -0.8191529 0
vn -0.5735753 -0.8191529 0
vn -0.5735765 -0.8191521 0
vn -0.5735781 -0.8191509 0
vn -0.5735762 -0.8191523 0
vn -0.5735762 -0.8191523 0
vn -0.5735781 -0.8191509 0
vn -0.5735765 -0.8191521 0
vn -0.5735753 -0.8191529 0
vn -0.573577 -0.8191517 0
vn -0.5735773 -0.8191515 0
vn -0.5735773 -0.8191515 0
vn -0.573577 -0.8191517 0
vn -0.5735753 -0.8191529 0
vn -0.5735765 -0.8191521 0
vn -0.5735765 -0.8191521 0
vn -0.5735753 -0.8191529 0
vn -0.573577 -0.8191517 0
vn -0.5735773 -0.8191515 0
vn -0.5735773 -0.8191515 0
vn -0.573577 -0.8191517 0
vn -0.5735753 -0.8191529 0
vn -0.5735765 -0.8191521 0
vn -0.5735781 -0.8191509 0
vn -0.5735762 -0.8191523 0
vn -0.5735762 -0.8191523 0
vn -0.5735781 -0.8191509 0
vn -0.5735741 -0.8191537 0
vn -0.5735741 -0.8191537 0
vn -0.5735765 -0.8191521 0
vn -0.5735753 -0.8191529 0
vn -0.5735776 -0.8191512 0
vn -0.5735776 -0.8191512 0
vn -0.573577 -0.8191517 0
vn -0.5735773 -0.8191515 0
vn -0.5735766 -0.8191519 0
vn -0.5735766 -0.8191519 0

vt 0 0.16875
vt 0 0.83125
vt 1.68 0.16875
vt 1.68 0.83125
vt 1.906796 0.16875
vt 1.906796 0.83125
vt 2.134013 0.16875
vt 2.134013 0.83125
vt 2.36167 0.16875
vt 2.36167 0.83125
vt 2.589789 0.16875
vt 2.589789 0.83125
vt 2.818391 0.16875
vt 2.818391 0.83125
vt 3.047496 0.16875
vt 3.047496 0.83125
vt 3.277125 0.16875
vt 3.277125 0.83125
vt 3.5073 0.16875
vt 3.5073 0.83125
vt 3.73804 0.16875
vt 3.73804 0.83125
vt 3.969366 0.16875
vt 3.969366 0.83125
vt 4.2013 0.16875
vt 4.2013 0.83125
vt 4.433859 0.16875
vt 4.433859 0.83125
vt 4.667066 0.16875
vt 4.667066 0.83125
vt 4.900938 0.16875
vt 4.900938 0.83125
vt 5.135495 0.16875
vt 5.135495 0.83125
vt 5.370756 0.16875
vt 5.370756 0.83125
vt 5.606739 0.16875
vt 5.606739 0.83125
vt 5.843462 0.16875
vt 5.843462 0.83125
vt 6.080941 0.16875
vt 6.080941 0.83125
vt 6.319194 0.16875
vt 6.319194 0.83125
vt 6.558236 0.16875
vt 6.558236 0.83125
vt 6.798083 0.16875
vt 6.798083 0.83125
vt 7.038748 0.16875
vt 7.038748 0.83125
vt 7.280245 0.16875
vt 7.280245 0.83125
vt 7.522588 0.16875
vt 7.522588 0.83125
vt 7.765787 0.16875
vt 7.765787 0.83125
vt 8.009853 0.16875
vt 8.009853 0.83125
vt 8.254796 0.16875
vt 8.254796 0.83125
vt 8.500624 0.16875
vt 8.500624 0.83125
vt 8.747345 0.16875
vt 8.747345 0.83125
vt 8.994964 0.16875
vt 8.994964 0.83125
vt 9.243487 0.16875
vt 9.243487 0.83125
vt 9.492918 0.16875
vt 9.492918 0.83125
vt 9.743258 0.16875
vt 9.743258 0.83125
vt 9.994508 0.16875
vt 9.994508 0.83125
vt 10.24667 0.16875
vt 10.24667 0.83125
vt 10.49973 0.16875
vt 10.49973 0.83125
vt 10.7537 0.16875
vt 10.7537 0.83125
vt 11.00857 0.16875
vt 11.00857 0.83125
vt 11.26433 0.16875
vt 11.26433 0.83125
vt 11.52097 0.16875
vt 11.52097 0.83125
vt 11.77849 0.16875
vt 11.77849 0.83125
vt 12.03686 0.16875
vt 12.03686 0.83125
vt 12.29608 0.16875
vt 12.29608 0.83125
vt 12.55614 0.16875
vt 12.55614 0.83125
vt 12.81701 0.16875
vt 12.81701 0.83125
vt 13.07868 0.16875
vt 13.07868 0.83125
vt 13.34112 0.16875
vt 13.34112 0.83125
vt 13.60432 0.16875
vt 13.60432 0.83125
vt 13.86825 0.16875
vt 13.86825 0.83125
vt 14.13288 0.16875
vt 14.13288 0.83125
vt 14.3982 0.16875
vt 14.3982 0.83125
vt 14.66417 0.16875
vt 14.66417 0.83125
vt 14.93076 0.16875
vt 14.93076 0.83125
vt 15.19794 0.16875
vt 15.19794 0.83125
vt 15.46568 0.16875
vt 15.46568 0.83125
vt 15.73394 0.16875
vt 15.73394 0.83125
vt 16.00269 0.16875
vt 16.00269 0.83125
vt 16.27189 0.16875
vt 16.27189 0.83125
vt 16.54151 0.16875
vt 16.54151 0.83125
vt 16.8115 0.16875
vt 16.8115 0.83125
vt 17.08184 0.16875
vt 17.08184 0.83125
vt 17.35247 0.16875
vt 17.35247 0.83125
vt 17.62335 0.16875
vt 17.62335 0.83125
vt 17.89445 0.16875
vt 17.89445 0.83125
vt 18.16572 0.16875
vt 18.16572 0.83125
vt 18.43712 0.16875
vt 18.43712 0.83125
vt 18.70861 0.16875
vt 18.70861 0.83125
vt 18.98014 0.16875
vt 18.98014 0.83125
vt 19.23215 0.16875
vt 19.23215 0.83125
vt 19.48415 0.16875
vt 19.48415 0.83125
vt 19.73616 0.16875
vt 19.73616 0.83125
vt 19.98817 0.16875
vt 19.98817 0.83125
vt 20.24017 0.16875
vt 20.24017 0.83125
vt 20.49218 0.16875
vt 20.49218 0.83125
vt 20.74418 0.16875
vt 20.74418 0.83125
vt 20.99619 0.16875
vt 20.99619 0.83125
vt 21.2482 0.16875
vt 21.2482 0.83125
vt 21.5002 0.16875
vt 21.5002 0.83125
vt 21.75221 0.16875
vt 21.75221 0.83125
vt 22.00421 0.16875
vt 22.00421 0.83125
vt 22.25622 0.16875
vt 22.25622 0.83125
vt 22.50822 0.16875
vt 22.50822 0.83125
vt 22.76023 0.16875
vt 22.76023 0.83125
vt 23.01224 0.16875
vt 23.01224 0.83125
vt 23.26424 0.16875
vt 23.26424 0.83125
vt 23.51625 0.16875
vt 23.51625 0.83125
vt 23.76826 0.16875
vt 23.76826 0.83125
vt 24.02026 0.16875
vt 24.02026 0.83125
vt 24.27227 0.16875
vt 24.27227 0.83125
vt 24.52427 0.16875
vt 24.52427 0.83125
vt 24.77628 0.16875
vt 24.77628 0.83125

usemtl InrunMaterial2
usemap InrunMaterial2
f 1/1/1 4/4/4 2/2/2
f 1/1/1 3/3/3 4/4/4
f 3/3/3 6/6/6 4/4/4
f 3/3/3 5/5/5 6/6/6
f 5/5/5 8/8/8 6/6/6
f 5/5/5 7/7/7 8/8/8
f 7/7/7 10/10/10 8/8/8
f 7/7/7 9/9/9 10/10/10
f 9/9/9 12/12/12 10/10/10
f 9/9/9 11/11/11 12/12/12
f 11/11/11 14/14/14 12/12/12
f 11/11/11 13/13/13 14/14/14
f 13/13/13 16/16/16 14/14/14
f 13/13/13 15/15/15 16/16/16
f 15/15/15 18/18/18 16/16/16
f 15/15/15 17/17/17 18/18/18
f 17/17/17 20/20/20 18/18/18
f 17/17/17 19/19/19 20/20/20
f 19/19/19 22/22/22 20/20/20
f 19/19/19 21/21/21 22/22/22
f 21/21/21 24/24/24 22/22/22
f 21/21/21 23/23/23 24/24/24
f 23/23/23 26/26/26 24/24/24
f 23/23/23 25/25/25 26/26/26
f 25/25/25 28/28/28 26/26/26
f 25/25/25 27/27/27 28/28/28
f 27/27/27 30/30/30 28/28/28
f 27/27/27 29/29/29 30/30/30
f 29/29/29 32/32/32 30/30/30
f 29/29/29 31/31/31 32/32/32
f 31/31/31 34/34/34 32/32/32
f 31/31/31 33/33/33 34/34/34
f 33/33/33 36/36/36 34/34/34
f 33/33/33 35/35/35 36/36/36
f 35/35/35 38/38/38 36/36/36
f 35/35/35 37/37/37 38/38/38
f 37/37/37 40/40/40 38/38/38
f 37/37/37 39/39/39 40/40/40
f 39/39/39 42/42/42 40/40/40
f 39/39/39 41/41/41 42/42/42
f 41/41/41 44/44/44 42/42/42
f 41/41/41 43/43/43 44/44/44
f 43/43/43 46/46/46 44/44/44
f 43/43/43 45/45/45 46/46/46
f 45/45/45 48/48/48 46/46/46
f 45/45/45 47/47/47 48/48/48
f 47/47/47 50/50/50 48/48/48
f 47/47/47 49/49/49 50/50/50
f 49/49/49 52/52/52 50/50/50
f 49/49/49 51/51/51 52/52/52
f 51/51/51 54/54/54 52/52/52
f 51/51/51 53/53/53 54/54/54
f 53/53/53 56/56/56 54/54/54
f 53/53/53 55/55/55 56/56/56
f 55/55/55 58/58/58 56/56/56
f 55/55/55 57/57/57 58/58/58
f 57/57/57 60/60/60 58/58/58
f 57/57/57 59/59/59 60/60/60
f 59/59/59 62/62/62 60/60/60
f 59/59/59 61/61/61 62/62/62
f 61/61/61 64/64/64 62/62/62
f 61/61/61 63/63/63 64/64/64
f 63/63/63 66/66/66 64/64/64
f 63/63/63 65/65/65 66/66/66
f 65/65/65 68/68/68 66/66/66
f 65/65/65 67/67/67 68/68/68
f 67/67/67 70/70/70 68/68/68
f 67/67/67 69/69/69 70/70/70
f 69/69/69 72/72/72 70/70/70
f 69/69/69 71/71/71 72/72/72
f 71/71/71 74/74/74 72/72/72
f 71/71/71 73/73/73 74/74/74
f 73/73/73 76/76/76 74/74/74
f 73/73/73 75/75/75 76/76/76
f 75/75/75 78/78/78 76/76/76
f 75/75/75 77/77/77 78/78/78
f 77/77/77 80/80/80 78/78/78
f 77/77/77 79/79/79 80/80/80
f 79/79/79 82/82/82 80/80/80
f 79/79/79 81/81/81 82/82/82
f 81/81/81 84/84/84 82/82/82
f 81/81/81 83/83/83 84/84/84
f 83/83/83 86/86/86 84/84/84
f 83/83/83 85/85/85 86/86/86
f 85/85/85 88/88/88 86/86/86
f 85/85/85 87/87/87 88/88/88
f 87/87/87 90/90/90 88/88/88
f 87/87/87 89/89/89 90/90/90
f 89/89/89 92/92/92 90/90/90
f 89/89/89 91/91/91 92/92/92
f 91/91/91 94/94/94 92/92/92
f 91/91/91 93/93/93 94/94/94
f 93/93/93 96/96/96 94/94/94
f 93/93/93 95/95/95 96/96/96
f 95/95/95 98/98/98 96/96/96
f 95/95/95 97/97/97 98/98/98
f 97/97/97 100/100/100 98/98/98
f 97/97/97 99/99/99 100/100/100
f 99/99/99 102/102/102 100/100/100
f 99/99/99 101/101/101 102/102/102
f 101/101/101 104/104/104 102/102/102
f 101/101/101 103/103/103 104/104/104
f 103/103/103 106/106/106 104/104/104
f 103/103/103 105/105/105 106/106/106
f 105/105/105 108/108/108 106/106/106
f 105/105/105 107/107/107 108/108/108
f 107/107/107 110/110/110 108/108/108
f 107/107/107 109/109/109 110/110/110
f 109/109/109 112/112/112 110/110/110
f 109/109/109 111/111/111 112/112/112
f 111/111/111 114/114/114 112/112/112
f 111/111/111 113/113/113 114/114/114
f 113/113/113 116/116/116 114/114/114
f 113/113/113 115/115/115 116/116/116
f 115/115/115 118/118/118 116/116/116
f 115/115/115 117/117/117 118/118/118
f 117/117/117 120/120/120 118/118/118
f 117/117/117 119/119/119 120/120/120
f 119/119/119 122/122/122 120/120/120
f 119/119/119 121/121/121 122/122/122
f 121/121/121 124/124/124 122/122/122
f 121/121/121 123/123/123 124/124/124
f 123/123/123 126/126/126 124/124/124
f 123/123/123 125/125/125 126/126/126
f 125/125/125 128/128/128 126/126/126
f 125/125/125 127/127/127 128/128/128
f 127/127/127 130/130/130 128/128/128
f 127/127/127 129/129/129 130/130/130
f 129/129/129 132/132/132 130/130/130
f 129/129/129 131/131/131 132/132/132
f 131/131/131 134/134/134 132/132/132
f 131/131/131 133/133/133 134/134/134
f 133/133/133 136/136/136 134/134/134
f 133/133/133 135/135/135 136/136/136
f 135/135/135 138/138/138 136/136/136
f 135/135/135 137/137/137 138/138/138
f 137/137/137 140/140/140 138/138/138
f 137/137/137 139/139/139 140/140/140
f 139/139/139 142/142/142 140/140/140
f 139/139/139 141/141/141 142/142/142
f 141/141/141 144/144/144 142/142/142
f 141/141/141 143/143/143 144/144/144
f 143/143/143 146/146/146 144/144/144
f 143/143/143 145/145/145 146/146/146
f 145/145/145 148/148/148 146/146/146
f 145/145/145 147/147/147 148/148/148
f 147/147/147 150/150/150 148/148/148
f 147/147/147 149/149/149 150/150/150
f 149/149/149 152/152/152 150/150/150
f 149/149/149 151/151/151 152/152/152
f 151/151/151 154/154/154 152/152/152
f 151/151/151 153/153/153 154/154/154
f 153/153/153 156/156/156 154/154/154
f 153/153/153 155/155/155 156/156/156
f 155/155/155 158/158/158 156/156/156
f 155/155/155 157/157/157 158/158/158
f 157/157/157 160/160/160 158/158/158
f 157/157/157 159/159/159 160/160/160
f 159/159/159 162/162/162 160/160/160
f 159/159/159 161/161/161 162/162/162
f 161/161/161 164/164/164 162/162/162
f 161/161/161 163/163/163 164/164/164
f 163/163/163 166/166/166 164/164/164
f 163/163/163 165/165/165 166/166/166
f 165/165/165 168/168/168 166/166/166
f 165/165/165 167/167/167 168/168/168
f 167/167/167 170/170/170 168/168/168
f 167/167/167 169/169/169 170/170/170
f 169/169/169 172/172/172 170/170/170
f 169/169/169 171/171/171 172/172/172
f 171/171/171 174/174/174 172/172/172
f 171/171/171 173/173/173 174/174/174
f 173/173/173 176/176/176 174/174/174
f 173/173/173 175/175/175 176/176/176
f 175/175/175 178/178/178 176/176/176
f 175/175/175 177/177/177 178/178/178
f 177/177/177 180/180/180 178/178/178
f 177/177/177 179/179/179 180/180/180
f 179/179/179 182/182/182 180/180/180
f 179/179/179 181/181/181 182/182/182
f 181/181/181 184/184/184 182/182/182
f 181/181/181 183/183/183 184/184/184
f 183/183/183 186/186/186 184/184/184
f 183/183/183 185/185/185 186/186/186
f 185/185/185 188/188/188 186/186/186
f 185/185/185 187/187/187 188/188/188
