#Inrun.obj
#Thursday, April 25, 2019
#7:24:16 PM
#-------

#Inrun
#-------
g Inrun
v 0 0 1.265
v 0 0 -1.265
v -6.675065 1.297501 1.265
v -6.675065 1.297501 -1.265
v -7.60973 1.483589 1.265
v -7.60973 1.483589 -1.265
v -8.544394 1.678513 1.265
v -8.544394 1.678513 -1.265
v -9.479059 1.882339 1.265
v -9.479059 1.882339 -1.265
v -10.41372 2.095116 1.265
v -10.41372 2.095116 -1.265
v -11.34839 2.316887 1.265
v -11.34839 2.316887 -1.265
v -12.28305 2.547729 1.265
v -12.28305 2.547729 -1.265
v -13.21772 2.787689 1.265
v -13.21772 2.787689 -1.265
v -14.15238 3.036842 1.265
v -14.15238 3.036842 -1.265
v -15.08705 3.29525 1.265
v -15.08705 3.29525 -1.265
v -16.02171 3.562988 1.265
v -16.02171 3.562988 -1.265
v -16.95638 3.840126 1.265
v -16.95638 3.840126 -1.265
v -17.89104 4.126747 1.265
v -17.89104 4.126747 -1.265
v -18.82571 4.422928 1.265
v -18.82571 4.422928 -1.265
v -19.76037 4.72876 1.265
v -19.76037 4.72876 -1.265
v -20.69504 5.044327 1.265
v -20.69504 5.044327 -1.265
v -21.6297 5.36972 1.265
v -21.6297 5.36972 -1.265
v -22.56437 5.705048 1.265
v -22.56437 5.705048 -1.265
v -23.49903 6.0504 1.265
v -23.49903 6.0504 -1.265
v -24.43369 6.405884 1.265
v -24.43369 6.405884 -1.265
v -25.36836 6.771614 1.265
v -25.36836 6.771614 -1.265
v -26.30302 7.147705 1.265
v -26.30302 7.147705 -1.265
v -27.23769 7.534279 1.265
v -27.23769 7.534279 -1.265
v -28.17235 7.931465 1.265
v -28.17235 7.931465 -1.265
v -29.10702 8.339386 1.265
v -29.10702 8.339386 -1.265
v -30.04168 8.758186 1.265
v -30.04168 8.758186 -1.265
v -30.97635 9.188004 1.265
v -30.97635 9.188004 -1.265
v -31.91101 9.628998 1.265
v -31.91101 9.628998 -1.265
v -32.84568 10.08131 1.265
v -32.84568 10.08131 -1.265
v -33.78034 10.54512 1.265
v -33.78034 10.54512 -1.265
v -34.71501 11.02058 1.265
v -34.71501 11.02058 -1.265
v -35.64967 11.5079 1.265
v -35.64967 11.5079 -1.265
v -36.58434 12.00724 1.265
v -36.58434 12.00724 -1.265
v -37.519 12.51881 1.265
v -37.519 12.51881 -1.265
v -38.45367 13.0428 1.265
v -38.45367 13.0428 -1.265
v -39.38833 13.57944 1.265
v -39.38833 13.57944 -1.265
v -40.32299 14.12896 1.265
v -40.32299 14.12896 -1.265
v -41.25766 14.69157 1.265
v -41.25766 14.69157 -1.265
v -42.19233 15.26756 1.265
v -42.19233 15.26756 -1.265
v -43.12699 15.85715 1.265
v -43.12699 15.85715 -1.265
v -44.06165 16.46063 1.265
v -44.06165 16.46063 -1.265
v -44.99632 17.0783 1.265
v -44.99632 17.0783 -1.265
v -45.93098 17.71044 1.265
v -45.93098 17.71044 -1.265
v -46.86565 18.35739 1.265
v -46.86565 18.35739 -1.265
v -47.69417 18.93753 1.265
v -47.69417 18.93753 -1.265
v -48.52269 19.51766 1.265
v -48.52269 19.51766 -1.265
v -49.35121 20.0978 1.265
v -49.35121 20.0978 -1.265
v -50.17974 20.67794 1.265
v -50.17974 20.67794 -1.265
v -51.00826 21.25808 1.265
v -51.00826 21.25808 -1.265
v -51.83678 21.83821 1.265
v -51.83678 21.83821 -1.265
v -52.6653 22.41835 1.265
v -52.6653 22.41835 -1.265
v -53.49382 22.99849 1.265
v -53.49382 22.99849 -1.265
v -54.32235 23.57863 1.265
v -54.32235 23.57863 -1.265
v -55.15087 24.15877 1.265
v -55.15087 24.15877 -1.265
v -55.97939 24.7389 1.265
v -55.97939 24.7389 -1.265
v -56.80791 25.31904 1.265
v -56.80791 25.31904 -1.265
v -57.63644 25.89918 1.265
v -57.63644 25.89918 -1.265
v -58.46496 26.47932 1.265
v -58.46496 26.47932 -1.265
v -59.29348 27.05945 1.265
v -59.29348 27.05945 -1.265
v -60.122 27.63959 1.265
v -60.122 27.63959 -1.265
v -60.95053 28.21973 1.265
v -60.95053 28.21973 -1.265
v -61.77905 28.79987 1.265
v -61.77905 28.79987 -1.265
v -62.60757 29.38 1.265
v -62.60757 29.38 -1.265
v -63.43609 29.96014 1.265
v -63.43609 29.96014 -1.265
v -64.26462 30.54028 1.265
v -64.26462 30.54028 -1.265
v -65.09314 31.12041 1.265
v -65.09314 31.12041 -1.265
v -65.92166 31.70055 1.265
v -65.92166 31.70055 -1.265
v -66.75018 32.28069 1.265
v -66.75018 32.28069 -1.265
v -67.5787 32.86083 1.265
v -67.5787 32.86083 -1.265
v -68.40723 33.44096 1.265
v -68.40723 33.44096 -1.265
v -69.23575 34.0211 1.265
v -69.23575 34.0211 -1.265
v -70.06427 34.60124 1.265
v -70.06427 34.60124 -1.265
v -70.89279 35.18138 1.265
v -70.89279 35.18138 -1.265
v -71.72131 35.76152 1.265
v -71.72131 35.76152 -1.265
v -72.54984 36.34165 1.265
v -72.54984 36.34165 -1.265
v -73.37836 36.92179 1.265
v -73.37836 36.92179 -1.265
v -74.20688 37.50193 1.265
v -74.20688 37.50193 -1.265
v -75.03541 38.08207 1.265
v -75.03541 38.08207 -1.265
v -75.86392 38.6622 1.265
v -75.86392 38.6622 -1.265
v -76.69245 39.24234 1.265
v -76.69245 39.24234 -1.265
v -77.52097 39.82248 1.265
v -77.52097 39.82248 -1.265
v -78.34949 40.40262 1.265
v -78.34949 40.40262 -1.265
v -79.17802 40.98276 1.265
v -79.17802 40.98276 -1.265
v -80.00654 41.56289 1.265
v -80.00654 41.56289 -1.265
v -80.83506 42.14303 1.265
v -80.83506 42.14303 -1.265
v -81.66359 42.72317 1.265
v -81.66359 42.72317 -1.265
v -82.4921 43.30331 1.265
v -82.4921 43.30331 -1.265
v -83.32063 43.88344 1.265
v -83.32063 43.88344 -1.265
v -84.14915 44.46358 1.265
v -84.14915 44.46358 -1.265
v -84.97768 45.04372 1.265
v -84.97768 45.04372 -1.265
v -85.8062 45.62386 1.265
v -85.8062 45.62386 -1.265
v -86.63472 46.20399 1.265
v -86.63472 46.20399 -1.265
v -87.46324 46.78413 1.265
v -87.46324 46.78413 -1.265
v -88.29176 47.36427 1.265
v -88.29176 47.36427 -1.265
v -89.12029 47.9444 1.265
v -89.12029 47.9444 -1.265
v -89.94881 48.52454 1.265
v -89.94881 48.52454 -1.265
v -90.77733 49.10468 1.265
v -90.77733 49.10468 -1.265
v -91.60585 49.68482 1.265
v -91.60585 49.68482 -1.265

vn -0.190809 -0.9816272 0
vn -0.190809 -0.9816272 0
vn -0.1917846 -0.9814371 0
vn -0.1911008 -0.9815704 0
vn -0.2011977 -0.9795507 0
vn -0.1982334 -0.9801549 0
vn -0.2101029 -0.9776793 0
vn -0.2071326 -0.9783129 0
vn -0.2190089 -0.9757228 0
vn -0.2160411 -0.9763842 0
vn -0.2279058 -0.9736832 0
vn -0.2249413 -0.9743723 0
vn -0.2368108 -0.9715558 0
vn -0.2338406 -0.972275 0
vn -0.245711 -0.9693431 0
vn -0.2427461 -0.9700898 0
vn -0.2546136 -0.9670429 0
vn -0.2516449 -0.9678197 0
vn -0.2635153 -0.9646552 0
vn -0.2605489 -0.9654607 0
vn -0.2724183 -0.9621789 0
vn -0.2694501 -0.9630143 0
vn -0.2813187 -0.9596145 0
vn -0.2783527 -0.9604789 0
vn -0.2902215 -0.9569595 0
vn -0.2872533 -0.9578547 0
vn -0.2991225 -0.9542148 0
vn -0.2961563 -0.9551395 0
vn -0.3080261 -0.9513779 0
vn -0.3050576 -0.9523339 0
vn -0.3169281 -0.9484495 0
vn -0.3139615 -0.9494357 0
vn -0.325828 -0.945429 0
vn -0.3228615 -0.9464462 0
vn -0.3347328 -0.9423131 0
vn -0.3317638 -0.9433625 0
vn -0.3436348 -0.9391034 0
vn -0.3406684 -0.9401836 0
vn -0.3525339 -0.9357991 0
vn -0.3495677 -0.9369111 0
vn -0.3614359 -0.9323969 0
vn -0.3584682 -0.9335419 0
vn -0.3703378 -0.9288971 0
vn -0.3673709 -0.9300745 0
vn -0.3792407 -0.9252981 0
vn -0.3762729 -0.9265089 0
vn -0.3881454 -0.9215981 0
vn -0.3851771 -0.9228427 0
vn -0.3970464 -0.9177986 0
vn -0.3940803 -0.9190761 0
vn -0.4059484 -0.913896 0
vn -0.4029806 -0.9152086 0
vn -0.4148495 -0.9098901 0
vn -0.411883 -0.9112368 0
vn -0.4237539 -0.9057774 0
vn -0.4207852 -0.9071603 0
vn -0.4326514 -0.9015614 0
vn -0.4296872 -0.9029778 0
vn -0.4415573 -0.8972331 0
vn -0.4385866 -0.898689 0
vn -0.4504565 -0.8927983 0
vn -0.4474924 -0.8942877 0
vn -0.4593602 -0.8882501 0
vn -0.4563907 -0.8897795 0
vn -0.468265 -0.8835881 0
vn -0.4652976 -0.8851543 0
vn -0.4771661 -0.8788132 0
vn -0.4741994 -0.8804174 0
vn -0.4860666 -0.8739218 0
vn -0.4830998 -0.8755653 0
vn -0.4949676 -0.8689116 0
vn -0.4920007 -0.8705948 0
vn -0.5038753 -0.8637764 0
vn -0.5009052 -0.8655022 0
vn -0.5127732 -0.8585241 0
vn -0.5098095 -0.8602873 0
vn -0.5216766 -0.8531433 0
vn -0.518707 -0.8549521 0
vn -0.5305796 -0.8476351 0
vn -0.5276132 -0.8494847 0
vn -0.539481 -0.8419977 0
vn -0.5365139 -0.8438915 0
vn -0.5483851 -0.836226 0
vn -0.545417 -0.8381648 0
vn -0.5572845 -0.8303216 0
vn -0.5543192 -0.8323042 0
vn -0.566189 -0.8242754 0
vn -0.5632198 -0.8263072 0
vn -0.5719802 -0.8202675 0
vn -0.5705048 -0.8212942 0
vn -0.5735761 -0.8191523 0
vn -0.5735757 -0.8191526 0
vn -0.5735765 -0.8191519 0
vn -0.5735765 -0.8191519 0
vn -0.5735762 -0.8191523 0
vn -0.5735763 -0.8191522 0
vn -0.5735763 -0.8191522 0
vn -0.5735762 -0.8191522 0
vn -0.5735765 -0.8191519 0
vn -0.5735765 -0.8191519 0
vn -0.5735765 -0.8191519 0
vn -0.5735765 -0.8191519 0
vn -0.5735765 -0.8191519 0
vn -0.5735765 -0.8191519 0
vn -0.5735773 -0.8191514 0
vn -0.5735769 -0.8191518 0
vn -0.5735757 -0.8191525 0
vn -0.5735767 -0.8191518 0
vn -0.5735759 -0.8191524 0
vn -0.5735753 -0.8191529 0
vn -0.5735765 -0.8191519 0
vn -0.5735765 -0.8191519 0
vn -0.5735765 -0.8191519 0
vn -0.5735765 -0.8191519 0
vn -0.5735773 -0.8191514 0
vn -0.5735769 -0.8191518 0
vn -0.5735761 -0.8191523 0
vn -0.5735769 -0.8191516 0
vn -0.5735769 -0.8191518 0
vn -0.5735761 -0.8191523 0
vn -0.5735757 -0.8191525 0
vn -0.5735767 -0.8191518 0
vn -0.5735759 -0.8191524 0
vn -0.5735753 -0.8191529 0
vn -0.5735765 -0.8191519 0
vn -0.5735765 -0.8191519 0
vn -0.5735765 -0.8191519 0
vn -0.5735765 -0.8191519 0
vn -0.5735753 -0.8191528 0
vn -0.5735759 -0.8191524 0
vn -0.5735759 -0.8191524 0
vn -0.5735753 -0.8191529 0
vn -0.5735773 -0.8191514 0
vn -0.5735769 -0.8191518 0
vn -0.5735778 -0.8191511 0
vn -0.5735778 -0.8191511 0
vn -0.5735761 -0.8191523 0
vn -0.5735769 -0.8191516 0
vn -0.5735753 -0.8191529 0
vn -0.5735753 -0.8191529 0
vn -0.5735769 -0.8191518 0
vn -0.5735761 -0.8191523 0
vn -0.5735778 -0.8191511 0
vn -0.5735778 -0.8191511 0
vn -0.5735778 -0.8191511 0
vn -0.5735778 -0.8191511 0
vn -0.5735761 -0.8191523 0
vn -0.5735769 -0.8191516 0
vn -0.5735753 -0.8191529 0
vn -0.5735753 -0.8191529 0
vn -0.5735769 -0.8191518 0
vn -0.5735761 -0.8191523 0
vn -0.5735778 -0.8191511 0
vn -0.5735778 -0.8191511 0
vn -0.5735754 -0.8191527 0
vn -0.5735766 -0.8191519 0
vn -0.5735756 -0.8191527 0
vn -0.5735749 -0.8191531 0
vn -0.5735749 -0.8191531 0
vn -0.5735756 -0.8191527 0
vn -0.5735766 -0.8191519 0
vn -0.5735754 -0.8191528 0
vn -0.5735778 -0.8191511 0
vn -0.5735778 -0.8191511 0
vn -0.5735778 -0.8191511 0
vn -0.5735778 -0.8191511 0
vn -0.5735761 -0.8191523 0
vn -0.5735769 -0.8191516 0
vn -0.5735753 -0.8191529 0
vn -0.5735753 -0.8191529 0
vn -0.5735746 -0.8191534 0
vn -0.5735749 -0.8191531 0
vn -0.573579 -0.8191503 0
vn -0.5735766 -0.8191519 0
vn -0.5735749 -0.8191531 0
vn -0.5735781 -0.8191509 0
vn -0.5735741 -0.8191537 0
vn -0.5735729 -0.8191546 0
vn -0.5735769 -0.8191518 0
vn -0.5735761 -0.8191523 0
vn -0.5735778 -0.8191511 0
vn -0.5735778 -0.8191511 0
vn -0.5735778 -0.8191511 0
vn -0.5735778 -0.8191511 0
vn -0.5735778 -0.8191511 0
vn -0.5735778 -0.8191511 0
vn -0.5735761 -0.8191523 0
vn -0.5735769 -0.8191516 0
vn -0.5735753 -0.8191529 0
vn -0.5735753 -0.8191529 0
vn -0.5735769 -0.8191518 0
vn -0.5735761 -0.8191523 0
vn -0.5735778 -0.8191511 0
vn -0.5735778 -0.8191511 0
vn -0.5735761 -0.8191523 0
vn -0.5735769 -0.8191516 0
vn -0.5735753 -0.8191529 0
vn -0.5735753 -0.8191529 0

vt 0 0.18375
vt 0 0.81625
vt 1.7 0.18375
vt 1.7 0.81625
vt 1.938252 0.18375
vt 1.938252 0.81625
vt 2.176946 0.18375
vt 2.176946 0.81625
vt 2.416104 0.18375
vt 2.416104 0.81625
vt 2.655748 0.18375
vt 2.655748 0.81625
vt 2.895902 0.18375
vt 2.895902 0.81625
vt 3.13659 0.18375
vt 3.13659 0.81625
vt 3.377834 0.18375
vt 3.377834 0.81625
vt 3.619659 0.18375
vt 3.619659 0.81625
vt 3.862092 0.18375
vt 3.862092 0.81625
vt 4.105155 0.18375
vt 4.105155 0.81625
vt 4.348877 0.18375
vt 4.348877 0.81625
vt 4.593283 0.18375
vt 4.593283 0.81625
vt 4.838401 0.18375
vt 4.838401 0.81625
vt 5.084258 0.18375
vt 5.084258 0.81625
vt 5.330883 0.18375
vt 5.330883 0.81625
vt 5.578304 0.18375
vt 5.578304 0.81625
vt 5.826553 0.18375
vt 5.826553 0.81625
vt 6.07566 0.18375
vt 6.07566 0.81625
vt 6.325656 0.18375
vt 6.325656 0.81625
vt 6.576573 0.18375
vt 6.576573 0.81625
vt 6.828447 0.18375
vt 6.828447 0.81625
vt 7.08131 0.18375
vt 7.08131 0.81625
vt 7.335199 0.18375
vt 7.335199 0.81625
vt 7.59015 0.18375
vt 7.59015 0.81625
vt 7.846201 0.18375
vt 7.846201 0.81625
vt 8.10339 0.18375
vt 8.10339 0.81625
vt 8.361759 0.18375
vt 8.361759 0.81625
vt 8.621347 0.18375
vt 8.621347 0.81625
vt 8.882202 0.18375
vt 8.882202 0.81625
vt 9.144364 0.18375
vt 9.144364 0.81625
vt 9.407882 0.18375
vt 9.407882 0.81625
vt 9.672805 0.18375
vt 9.672805 0.81625
vt 9.939181 0.18375
vt 9.939181 0.81625
vt 10.20706 0.18375
vt 10.20706 0.81625
vt 10.4765 0.18375
vt 10.4765 0.81625
vt 10.74756 0.18375
vt 10.74756 0.81625
vt 11.0203 0.18375
vt 11.0203 0.81625
vt 11.29477 0.18375
vt 11.29477 0.81625
vt 11.57104 0.18375
vt 11.57104 0.81625
vt 11.84918 0.18375
vt 11.84918 0.81625
vt 12.12926 0.18375
vt 12.12926 0.81625
vt 12.41135 0.18375
vt 12.41135 0.81625
vt 12.69553 0.18375
vt 12.69553 0.81625
vt 12.94839 0.18375
vt 12.94839 0.81625
vt 13.20125 0.18375
vt 13.20125 0.81625
vt 13.45411 0.18375
vt 13.45411 0.81625
vt 13.70697 0.18375
vt 13.70697 0.81625
vt 13.95983 0.18375
vt 13.95983 0.81625
vt 14.21269 0.18375
vt 14.21269 0.81625
vt 14.46555 0.18375
vt 14.46555 0.81625
vt 14.71841 0.18375
vt 14.71841 0.81625
vt 14.97127 0.18375
vt 14.97127 0.81625
vt 15.22413 0.18375
vt 15.22413 0.81625
vt 15.47699 0.18375
vt 15.47699 0.81625
vt 15.72985 0.18375
vt 15.72985 0.81625
vt 15.9827 0.18375
vt 15.9827 0.81625
vt 16.23556 0.18375
vt 16.23556 0.81625
vt 16.48842 0.18375
vt 16.48842 0.81625
vt 16.74128 0.18375
vt 16.74128 0.81625
vt 16.99414 0.18375
vt 16.99414 0.81625
vt 17.247 0.18375
vt 17.247 0.81625
vt 17.49986 0.18375
vt 17.49986 0.81625
vt 17.75272 0.18375
vt 17.75272 0.81625
vt 18.00558 0.18375
vt 18.00558 0.81625
vt 18.25844 0.18375
vt 18.25844 0.81625
vt 18.5113 0.18375
vt 18.5113 0.81625
vt 18.76416 0.18375
vt 18.76416 0.81625
vt 19.01702 0.18375
vt 19.01702 0.81625
vt 19.26988 0.18375
vt 19.26988 0.81625
vt 19.52274 0.18375
vt 19.52274 0.81625
vt 19.77559 0.18375
vt 19.77559 0.81625
vt 20.02845 0.18375
vt 20.02845 0.81625
vt 20.28131 0.18375
vt 20.28131 0.81625
vt 20.53417 0.18375
vt 20.53417 0.81625
vt 20.78703 0.18375
vt 20.78703 0.81625
vt 21.03989 0.18375
vt 21.03989 0.81625
vt 21.29275 0.18375
vt 21.29275 0.81625
vt 21.54561 0.18375
vt 21.54561 0.81625
vt 21.79847 0.18375
vt 21.79847 0.81625
vt 22.05133 0.18375
vt 22.05133 0.81625
vt 22.30419 0.18375
vt 22.30419 0.81625
vt 22.55705 0.18375
vt 22.55705 0.81625
vt 22.80991 0.18375
vt 22.80991 0.81625
vt 23.06277 0.18375
vt 23.06277 0.81625
vt 23.31563 0.18375
vt 23.31563 0.81625
vt 23.56849 0.18375
vt 23.56849 0.81625
vt 23.82135 0.18375
vt 23.82135 0.81625
vt 24.07421 0.18375
vt 24.07421 0.81625
vt 24.32706 0.18375
vt 24.32706 0.81625
vt 24.57992 0.18375
vt 24.57992 0.81625
vt 24.83278 0.18375
vt 24.83278 0.81625
vt 25.08564 0.18375
vt 25.08564 0.81625
vt 25.3385 0.18375
vt 25.3385 0.81625
vt 25.59136 0.18375
vt 25.59136 0.81625
vt 25.84422 0.18375
vt 25.84422 0.81625
vt 26.09708 0.18375
vt 26.09708 0.81625
vt 26.34994 0.18375
vt 26.34994 0.81625

usemtl InrunMaterial2
usemap InrunMaterial2
f 1/1/1 4/4/4 2/2/2
f 1/1/1 3/3/3 4/4/4
f 3/3/3 6/6/6 4/4/4
f 3/3/3 5/5/5 6/6/6
f 5/5/5 8/8/8 6/6/6
f 5/5/5 7/7/7 8/8/8
f 7/7/7 10/10/10 8/8/8
f 7/7/7 9/9/9 10/10/10
f 9/9/9 12/12/12 10/10/10
f 9/9/9 11/11/11 12/12/12
f 11/11/11 14/14/14 12/12/12
f 11/11/11 13/13/13 14/14/14
f 13/13/13 16/16/16 14/14/14
f 13/13/13 15/15/15 16/16/16
f 15/15/15 18/18/18 16/16/16
f 15/15/15 17/17/17 18/18/18
f 17/17/17 20/20/20 18/18/18
f 17/17/17 19/19/19 20/20/20
f 19/19/19 22/22/22 20/20/20
f 19/19/19 21/21/21 22/22/22
f 21/21/21 24/24/24 22/22/22
f 21/21/21 23/23/23 24/24/24
f 23/23/23 26/26/26 24/24/24
f 23/23/23 25/25/25 26/26/26
f 25/25/25 28/28/28 26/26/26
f 25/25/25 27/27/27 28/28/28
f 27/27/27 30/30/30 28/28/28
f 27/27/27 29/29/29 30/30/30
f 29/29/29 32/32/32 30/30/30
f 29/29/29 31/31/31 32/32/32
f 31/31/31 34/34/34 32/32/32
f 31/31/31 33/33/33 34/34/34
f 33/33/33 36/36/36 34/34/34
f 33/33/33 35/35/35 36/36/36
f 35/35/35 38/38/38 36/36/36
f 35/35/35 37/37/37 38/38/38
f 37/37/37 40/40/40 38/38/38
f 37/37/37 39/39/39 40/40/40
f 39/39/39 42/42/42 40/40/40
f 39/39/39 41/41/41 42/42/42
f 41/41/41 44/44/44 42/42/42
f 41/41/41 43/43/43 44/44/44
f 43/43/43 46/46/46 44/44/44
f 43/43/43 45/45/45 46/46/46
f 45/45/45 48/48/48 46/46/46
f 45/45/45 47/47/47 48/48/48
f 47/47/47 50/50/50 48/48/48
f 47/47/47 49/49/49 50/50/50
f 49/49/49 52/52/52 50/50/50
f 49/49/49 51/51/51 52/52/52
f 51/51/51 54/54/54 52/52/52
f 51/51/51 53/53/53 54/54/54
f 53/53/53 56/56/56 54/54/54
f 53/53/53 55/55/55 56/56/56
f 55/55/55 58/58/58 56/56/56
f 55/55/55 57/57/57 58/58/58
f 57/57/57 60/60/60 58/58/58
f 57/57/57 59/59/59 60/60/60
f 59/59/59 62/62/62 60/60/60
f 59/59/59 61/61/61 62/62/62
f 61/61/61 64/64/64 62/62/62
f 61/61/61 63/63/63 64/64/64
f 63/63/63 66/66/66 64/64/64
f 63/63/63 65/65/65 66/66/66
f 65/65/65 68/68/68 66/66/66
f 65/65/65 67/67/67 68/68/68
f 67/67/67 70/70/70 68/68/68
f 67/67/67 69/69/69 70/70/70
f 69/69/69 72/72/72 70/70/70
f 69/69/69 71/71/71 72/72/72
f 71/71/71 74/74/74 72/72/72
f 71/71/71 73/73/73 74/74/74
f 73/73/73 76/76/76 74/74/74
f 73/73/73 75/75/75 76/76/76
f 75/75/75 78/78/78 76/76/76
f 75/75/75 77/77/77 78/78/78
f 77/77/77 80/80/80 78/78/78
f 77/77/77 79/79/79 80/80/80
f 79/79/79 82/82/82 80/80/80
f 79/79/79 81/81/81 82/82/82
f 81/81/81 84/84/84 82/82/82
f 81/81/81 83/83/83 84/84/84
f 83/83/83 86/86/86 84/84/84
f 83/83/83 85/85/85 86/86/86
f 85/85/85 88/88/88 86/86/86
f 85/85/85 87/87/87 88/88/88
f 87/87/87 90/90/90 88/88/88
f 87/87/87 89/89/89 90/90/90
f 89/89/89 92/92/92 90/90/90
f 89/89/89 91/91/91 92/92/92
f 91/91/91 94/94/94 92/92/92
f 91/91/91 93/93/93 94/94/94
f 93/93/93 96/96/96 94/94/94
f 93/93/93 95/95/95 96/96/96
f 95/95/95 98/98/98 96/96/96
f 95/95/95 97/97/97 98/98/98
f 97/97/97 100/100/100 98/98/98
f 97/97/97 99/99/99 100/100/100
f 99/99/99 102/102/102 100/100/100
f 99/99/99 101/101/101 102/102/102
f 101/101/101 104/104/104 102/102/102
f 101/101/101 103/103/103 104/104/104
f 103/103/103 106/106/106 104/104/104
f 103/103/103 105/105/105 106/106/106
f 105/105/105 108/108/108 106/106/106
f 105/105/105 107/107/107 108/108/108
f 107/107/107 110/110/110 108/108/108
f 107/107/107 109/109/109 110/110/110
f 109/109/109 112/112/112 110/110/110
f 109/109/109 111/111/111 112/112/112
f 111/111/111 114/114/114 112/112/112
f 111/111/111 113/113/113 114/114/114
f 113/113/113 116/116/116 114/114/114
f 113/113/113 115/115/115 116/116/116
f 115/115/115 118/118/118 116/116/116
f 115/115/115 117/117/117 118/118/118
f 117/117/117 120/120/120 118/118/118
f 117/117/117 119/119/119 120/120/120
f 119/119/119 122/122/122 120/120/120
f 119/119/119 121/121/121 122/122/122
f 121/121/121 124/124/124 122/122/122
f 121/121/121 123/123/123 124/124/124
f 123/123/123 126/126/126 124/124/124
f 123/123/123 125/125/125 126/126/126
f 125/125/125 128/128/128 126/126/126
f 125/125/125 127/127/127 128/128/128
f 127/127/127 130/130/130 128/128/128
f 127/127/127 129/129/129 130/130/130
f 129/129/129 132/132/132 130/130/130
f 129/129/129 131/131/131 132/132/132
f 131/131/131 134/134/134 132/132/132
f 131/131/131 133/133/133 134/134/134
f 133/133/133 136/136/136 134/134/134
f 133/133/133 135/135/135 136/136/136
f 135/135/135 138/138/138 136/136/136
f 135/135/135 137/137/137 138/138/138
f 137/137/137 140/140/140 138/138/138
f 137/137/137 139/139/139 140/140/140
f 139/139/139 142/142/142 140/140/140
f 139/139/139 141/141/141 142/142/142
f 141/141/141 144/144/144 142/142/142
f 141/141/141 143/143/143 144/144/144
f 143/143/143 146/146/146 144/144/144
f 143/143/143 145/145/145 146/146/146
f 145/145/145 148/148/148 146/146/146
f 145/145/145 147/147/147 148/148/148
f 147/147/147 150/150/150 148/148/148
f 147/147/147 149/149/149 150/150/150
f 149/149/149 152/152/152 150/150/150
f 149/149/149 151/151/151 152/152/152
f 151/151/151 154/154/154 152/152/152
f 151/151/151 153/153/153 154/154/154
f 153/153/153 156/156/156 154/154/154
f 153/153/153 155/155/155 156/156/156
f 155/155/155 158/158/158 156/156/156
f 155/155/155 157/157/157 158/158/158
f 157/157/157 160/160/160 158/158/158
f 157/157/157 159/159/159 160/160/160
f 159/159/159 162/162/162 160/160/160
f 159/159/159 161/161/161 162/162/162
f 161/161/161 164/164/164 162/162/162
f 161/161/161 163/163/163 164/164/164
f 163/163/163 166/166/166 164/164/164
f 163/163/163 165/165/165 166/166/166
f 165/165/165 168/168/168 166/166/166
f 165/165/165 167/167/167 168/168/168
f 167/167/167 170/170/170 168/168/168
f 167/167/167 169/169/169 170/170/170
f 169/169/169 172/172/172 170/170/170
f 169/169/169 171/171/171 172/172/172
f 171/171/171 174/174/174 172/172/172
f 171/171/171 173/173/173 174/174/174
f 173/173/173 176/176/176 174/174/174
f 173/173/173 175/175/175 176/176/176
f 175/175/175 178/178/178 176/176/176
f 175/175/175 177/177/177 178/178/178
f 177/177/177 180/180/180 178/178/178
f 177/177/177 179/179/179 180/180/180
f 179/179/179 182/182/182 180/180/180
f 179/179/179 181/181/181 182/182/182
f 181/181/181 184/184/184 182/182/182
f 181/181/181 183/183/183 184/184/184
f 183/183/183 186/186/186 184/184/184
f 183/183/183 185/185/185 186/186/186
f 185/185/185 188/188/188 186/186/186
f 185/185/185 187/187/187 188/188/188
f 187/187/187 190/190/190 188/188/188
f 187/187/187 189/189/189 190/190/190
f 189/189/189 192/192/192 190/190/190
f 189/189/189 191/191/191 192/192/192
f 191/191/191 194/194/194 192/192/192
f 191/191/191 193/193/193 194/194/194
f 193/193/193 196/196/196 194/194/194
f 193/193/193 195/195/195 196/196/196
f 195/195/195 198/198/198 196/196/196
f 195/195/195 197/197/197 198/198/198
