#Gate Stairs R.obj
#Thursday, April 25, 2019
#7:25:26 PM
#-------

#Gate Stairs R
#-------
g Gate Stairs R
v -74.00361 37.63971 -1.265
v -74.00361 37.63971 -5.265
v -74.40366 37.63971 -1.265
v -74.40366 37.63971 -5.265
v -74.40366 37.91983 -1.265
v -74.40366 37.91983 -5.265
v -74.8037 37.91983 -1.265
v -74.8037 37.91983 -5.265
v -74.8037 38.19995 -1.265
v -74.8037 38.19995 -5.265
v -75.20376 38.19995 -1.265
v -75.20376 38.19995 -5.265
v -75.20376 38.48007 -1.265
v -75.20376 38.48007 -5.265
v -75.60381 38.48007 -1.265
v -75.60381 38.48007 -5.265
v -75.60381 38.76019 -1.265
v -75.60381 38.76019 -5.265
v -76.00386 38.76019 -1.265
v -76.00386 38.76019 -5.265
v -76.00386 39.04031 -1.265
v -76.00386 39.04031 -5.265
v -76.40391 39.04031 -1.265
v -76.40391 39.04031 -5.265
v -76.40391 39.32043 -1.265
v -76.40391 39.32043 -5.265
v -76.80396 39.32043 -1.265
v -76.80396 39.32043 -5.265
v -76.80396 39.60054 -1.265
v -76.80396 39.60054 -5.265
v -77.20401 39.60054 -1.265
v -77.20401 39.60054 -5.265
v -77.20401 39.88066 -1.265
v -77.20401 39.88066 -5.265
v -77.60406 39.88066 -1.265
v -77.60406 39.88066 -5.265
v -77.60406 40.16078 -1.265
v -77.60406 40.16078 -5.265
v -78.00411 40.16078 -1.265
v -78.00411 40.16078 -5.265
v -78.00411 40.4409 -1.265
v -78.00411 40.4409 -5.265
v -78.40417 40.4409 -1.265
v -78.40417 40.4409 -5.265
v -78.40417 40.72102 -1.265
v -78.40417 40.72102 -5.265
v -78.80421 40.72102 -1.265
v -78.80421 40.72102 -5.265
v -78.80421 41.00114 -1.265
v -78.80421 41.00114 -5.265
v -79.20427 41.00114 -1.265
v -79.20427 41.00114 -5.265
v -79.20427 41.28126 -1.265
v -79.20427 41.28126 -5.265
v -79.60432 41.28126 -1.265
v -79.60432 41.28126 -5.265
v -79.60432 41.56137 -1.265
v -79.60432 41.56137 -5.265
v -80.00437 41.56137 -1.265
v -80.00437 41.56137 -5.265
v -80.00437 41.8415 -1.265
v -80.00437 41.8415 -5.265
v -80.40442 41.8415 -1.265
v -80.40442 41.8415 -5.265
v -80.40442 42.12161 -1.265
v -80.40442 42.12161 -5.265
v -80.80447 42.12161 -1.265
v -80.80447 42.12161 -5.265
v -80.80447 42.40173 -1.265
v -80.80447 42.40173 -5.265
v -81.20452 42.40173 -1.265
v -81.20452 42.40173 -5.265
v -81.20452 42.68185 -1.265
v -81.20452 42.68185 -5.265
v -81.60458 42.68185 -1.265
v -81.60458 42.68185 -5.265
v -81.60458 42.96197 -1.265
v -81.60458 42.96197 -5.265
v -82.00462 42.96197 -1.265
v -82.00462 42.96197 -5.265
v -82.00462 43.24209 -1.265
v -82.00462 43.24209 -5.265
v -82.40468 43.24209 -1.265
v -82.40468 43.24209 -5.265
v -82.40468 43.52221 -1.265
v -82.40468 43.52221 -5.265
v -82.80473 43.52221 -1.265
v -82.80473 43.52221 -5.265
v -82.80473 43.80233 -1.265
v -82.80473 43.80233 -5.265
v -83.20478 43.80233 -1.265
v -83.20478 43.80233 -5.265
v -83.20478 44.08244 -1.265
v -83.20478 44.08244 -5.265
v -83.60483 44.08244 -1.265
v -83.60483 44.08244 -5.265
v -83.60483 44.36256 -1.265
v -83.60483 44.36256 -5.265
v -84.00488 44.36256 -1.265
v -84.00488 44.36256 -5.265
v -84.00488 44.64268 -1.265
v -84.00488 44.64268 -5.265
v -84.40493 44.64268 -1.265
v -84.40493 44.64268 -5.265
v -84.40493 44.9228 -1.265
v -84.40493 44.9228 -5.265
v -84.80499 44.9228 -1.265
v -84.80499 44.9228 -5.265
v -84.80499 45.20292 -1.265
v -84.80499 45.20292 -5.265
v -85.20503 45.20292 -1.265
v -85.20503 45.20292 -5.265
v -85.20503 45.48304 -1.265
v -85.20503 45.48304 -5.265
v -85.60509 45.48304 -1.265
v -85.60509 45.48304 -5.265
v -85.60509 45.76316 -1.265
v -85.60509 45.76316 -5.265
v -86.00513 45.76316 -1.265
v -86.00513 45.76316 -5.265
v -86.00513 46.04327 -1.265
v -86.00513 46.04327 -5.265
v -86.40519 46.04327 -1.265
v -86.40519 46.04327 -5.265
v -86.40519 46.32339 -1.265
v -86.40519 46.32339 -5.265
v -86.80524 46.32339 -1.265
v -86.80524 46.32339 -5.265
v -86.80524 46.60351 -1.265
v -86.80524 46.60351 -5.265
v -87.20529 46.60351 -1.265
v -87.20529 46.60351 -5.265
v -87.20529 46.88363 -1.265
v -87.20529 46.88363 -5.265
v -87.60534 46.88363 -1.265
v -87.60534 46.88363 -5.265
v -87.60534 47.16375 -1.265
v -87.60534 47.16375 -5.265
v -88.00539 47.16375 -1.265
v -88.00539 47.16375 -5.265
v -88.00539 47.44387 -1.265
v -88.00539 47.44387 -5.265
v -88.40544 47.44387 -1.265
v -88.40544 47.44387 -5.265
v -88.40544 47.72399 -1.265
v -88.40544 47.72399 -5.265
v -88.8055 47.72399 -1.265
v -88.8055 47.72399 -5.265
v -88.8055 48.0041 -1.265
v -88.8055 48.0041 -5.265
v -89.20554 48.0041 -1.265
v -89.20554 48.0041 -5.265
v -89.20554 48.28423 -1.265
v -89.20554 48.28423 -5.265
v -89.6056 48.28423 -1.265
v -89.6056 48.28423 -5.265
v -89.6056 48.56434 -1.265
v -89.6056 48.56434 -5.265
v -90.00565 48.56434 -1.265
v -90.00565 48.56434 -5.265
v -90.00565 48.84446 -1.265
v -90.00565 48.84446 -5.265
v -90.4057 48.84446 -1.265
v -90.4057 48.84446 -5.265
v -90.4057 49.12458 -1.265
v -90.4057 49.12458 -5.265
v -90.80575 49.12458 -1.265
v -90.80575 49.12458 -5.265
v -90.80575 49.4047 -1.265
v -90.80575 49.4047 -5.265
v -91.2058 49.4047 -1.265
v -91.2058 49.4047 -5.265
v -91.2058 49.68482 -1.265
v -91.2058 49.68482 -5.265
v -91.60585 49.68482 -1.265
v -91.60585 49.68482 -5.265
v -91.60585 49.96494 -1.265
v -91.60585 49.96494 -5.265
v -92.00591 49.96494 -1.265
v -92.00591 49.96494 -5.265
v -92.00591 50.24506 -1.265
v -92.00591 50.24506 -5.265
v -92.40595 50.24506 -1.265
v -92.40595 50.24506 -5.265

vn 0 -1 0
vn 0 -1 0
vn -0.8138158 -0.5811229 0
vn -0.3304386 -0.9438275 0
vn -0.3304386 -0.9438275 0
vn -0.8138158 -0.5811229 0
vn -0.8138196 -0.5811176 0
vn -0.3304426 -0.9438261 0
vn -0.330437 -0.943828 0
vn -0.8138143 -0.581125 0
vn -0.8138106 -0.5811302 0
vn -0.330433 -0.9438294 0
vn -0.3304386 -0.9438275 0
vn -0.8138158 -0.5811229 0
vn -0.8138196 -0.5811176 0
vn -0.3304426 -0.9438261 0
vn -0.330437 -0.943828 0
vn -0.8138143 -0.581125 0
vn -0.8138106 -0.5811302 0
vn -0.330433 -0.9438294 0
vn -0.3304386 -0.9438275 0
vn -0.8138158 -0.5811229 0
vn -0.8138196 -0.5811176 0
vn -0.3304426 -0.9438261 0
vn -0.330437 -0.943828 0
vn -0.8138143 -0.581125 0
vn -0.8138106 -0.5811302 0
vn -0.330433 -0.9438294 0
vn -0.3304386 -0.9438275 0
vn -0.8138158 -0.5811229 0
vn -0.8138196 -0.5811176 0
vn -0.3304426 -0.9438261 0
vn -0.330437 -0.943828 0
vn -0.8138143 -0.581125 0
vn -0.8138106 -0.5811302 0
vn -0.330433 -0.9438294 0
vn -0.3304386 -0.9438275 0
vn -0.8138158 -0.5811229 0
vn -0.8138158 -0.5811229 0
vn -0.3304386 -0.9438275 0
vn -0.330433 -0.9438294 0
vn -0.8138106 -0.5811302 0
vn -0.8138143 -0.581125 0
vn -0.330437 -0.943828 0
vn -0.3304426 -0.9438261 0
vn -0.8138196 -0.5811176 0
vn -0.8138158 -0.5811229 0
vn -0.3304386 -0.9438275 0
vn -0.330433 -0.9438294 0
vn -0.8138106 -0.5811302 0
vn -0.8138143 -0.581125 0
vn -0.330437 -0.943828 0
vn -0.3304426 -0.9438261 0
vn -0.8138196 -0.5811176 0
vn -0.8138158 -0.5811229 0
vn -0.3304386 -0.9438275 0
vn -0.330433 -0.9438294 0
vn -0.8138106 -0.5811302 0
vn -0.8138143 -0.581125 0
vn -0.330437 -0.943828 0
vn -0.3304426 -0.9438261 0
vn -0.8138196 -0.5811176 0
vn -0.8138158 -0.5811229 0
vn -0.3304386 -0.9438275 0
vn -0.330433 -0.9438294 0
vn -0.8138106 -0.5811302 0
vn -0.8138143 -0.581125 0
vn -0.330437 -0.943828 0
vn -0.3304426 -0.9438261 0
vn -0.8138196 -0.5811176 0
vn -0.8138158 -0.5811229 0
vn -0.3304386 -0.9438275 0
vn -0.330433 -0.9438294 0
vn -0.8138106 -0.5811302 0
vn -0.8138106 -0.5811302 0
vn -0.330433 -0.9438294 0
vn -0.3304386 -0.9438275 0
vn -0.8138158 -0.5811229 0
vn -0.8138196 -0.5811176 0
vn -0.3304426 -0.9438261 0
vn -0.330437 -0.943828 0
vn -0.8138143 -0.581125 0
vn -0.8138106 -0.5811302 0
vn -0.330433 -0.9438294 0
vn -0.3304386 -0.9438275 0
vn -0.8138158 -0.5811229 0
vn -0.8138196 -0.5811176 0
vn -0.3304426 -0.9438261 0
vn -0.330437 -0.943828 0
vn -0.8138143 -0.581125 0
vn -0.8138106 -0.5811302 0
vn -0.330433 -0.9438294 0
vn -0.3304386 -0.9438275 0
vn -0.8138158 -0.5811229 0
vn -0.8138196 -0.5811176 0
vn -0.3304426 -0.9438261 0
vn -0.330437 -0.943828 0
vn -0.8138143 -0.581125 0
vn -0.8138106 -0.5811302 0
vn -0.330433 -0.9438294 0
vn -0.3304386 -0.9438275 0
vn -0.8138158 -0.5811229 0
vn -0.8138158 -0.5811229 0
vn -0.3304386 -0.9438275 0
vn -0.330433 -0.9438294 0
vn -0.8138106 -0.5811302 0
vn -0.8138143 -0.581125 0
vn -0.330437 -0.943828 0
vn -0.3304426 -0.9438261 0
vn -0.8138196 -0.5811176 0
vn -0.8138158 -0.5811229 0
vn -0.3304386 -0.9438275 0
vn -0.330433 -0.9438294 0
vn -0.8138106 -0.5811302 0
vn -0.8138143 -0.581125 0
vn -0.330437 -0.943828 0
vn -0.3304426 -0.9438261 0
vn -0.8138196 -0.5811176 0
vn -0.8138158 -0.5811229 0
vn -0.3304386 -0.9438275 0
vn -0.330433 -0.9438294 0
vn -0.8138106 -0.5811302 0
vn -0.8138143 -0.581125 0
vn -0.330437 -0.943828 0
vn -0.3304426 -0.9438261 0
vn -0.8138196 -0.5811176 0
vn -0.8138158 -0.5811229 0
vn -0.3304386 -0.9438275 0
vn -0.330433 -0.9438294 0
vn -0.8138106 -0.5811302 0
vn -0.8138106 -0.5811302 0
vn -0.330433 -0.9438294 0
vn -0.3304386 -0.9438275 0
vn -0.8138158 -0.5811229 0
vn -0.8138196 -0.5811176 0
vn -0.3304426 -0.9438261 0
vn -0.330437 -0.943828 0
vn -0.8138143 -0.581125 0
vn -0.8138106 -0.5811302 0
vn -0.330433 -0.9438294 0
vn -0.3304386 -0.9438275 0
vn -0.8138158 -0.5811229 0
vn -0.8138196 -0.5811176 0
vn -0.3304426 -0.9438261 0
vn -0.330437 -0.943828 0
vn -0.8138143 -0.581125 0
vn -0.8138106 -0.5811302 0
vn -0.330433 -0.9438294 0
vn -0.3304386 -0.9438275 0
vn -0.8138158 -0.5811229 0
vn -0.8138196 -0.5811176 0
vn -0.3304426 -0.9438261 0
vn -0.330437 -0.943828 0
vn -0.8138143 -0.581125 0
vn -0.8138106 -0.5811302 0
vn -0.330433 -0.9438294 0
vn -0.3304386 -0.9438275 0
vn -0.8138158 -0.5811229 0
vn -0.8138196 -0.5811176 0
vn -0.3304426 -0.9438261 0
vn -0.330437 -0.943828 0
vn -0.8138143 -0.581125 0
vn -0.8138106 -0.5811302 0
vn -0.330433 -0.9438294 0
vn -0.3304386 -0.9438275 0
vn -0.8138158 -0.5811229 0
vn -0.8138196 -0.5811176 0
vn -0.3304426 -0.9438261 0
vn -0.3304426 -0.9438261 0
vn -0.8138196 -0.5811176 0
vn -0.8138158 -0.5811229 0
vn -0.3304386 -0.9438275 0
vn -0.330433 -0.9438294 0
vn -0.8138106 -0.5811302 0
vn -0.8138106 -0.5811302 0
vn -0.330433 -0.9438294 0
vn -0.330433 -0.9438294 0
vn -0.8138106 -0.5811302 0
vn 0 -1 0
vn 0 -1 0
vn 0 0 0
vn 0 0 0
vn 0 0 0
vn 0 0 0

vt 0 0
vt 0 1
vt 0 0
vt 0 0
vt 1 0
vt 1 1
vt 0 0
vt 0 0
vt 2 0
vt 2 1
vt 0 0
vt 0 0
vt 3 0
vt 3 1
vt 0 0
vt 0 0
vt 4 0
vt 4 1
vt 0 0
vt 0 0
vt 5 0
vt 5 1
vt 0 0
vt 0 0
vt 6 0
vt 6 1
vt 0 0
vt 0 0
vt 7 0
vt 7 1
vt 0 0
vt 0 0
vt 8 0
vt 8 1
vt 0 0
vt 0 0
vt 9 0
vt 9 1
vt 0 0
vt 0 0
vt 10 0
vt 10 1
vt 0 0
vt 0 0
vt 11 0
vt 11 1
vt 0 0
vt 0 0
vt 12 0
vt 12 1
vt 0 0
vt 0 0
vt 13 0
vt 13 1
vt 0 0
vt 0 0
vt 14 0
vt 14 1
vt 0 0
vt 0 0
vt 15 0
vt 15 1
vt 0 0
vt 0 0
vt 16 0
vt 16 1
vt 0 0
vt 0 0
vt 17 0
vt 17 1
vt 0 0
vt 0 0
vt 18 0
vt 18 1
vt 0 0
vt 0 0
vt 19 0
vt 19 1
vt 0 0
vt 0 0
vt 20 0
vt 20 1
vt 0 0
vt 0 0
vt 21 0
vt 21 1
vt 0 0
vt 0 0
vt 22 0
vt 22 1
vt 0 0
vt 0 0
vt 23 0
vt 23 1
vt 0 0
vt 0 0
vt 24 0
vt 24 1
vt 0 0
vt 0 0
vt 25 0
vt 25 1
vt 0 0
vt 0 0
vt 26 0
vt 26 1
vt 0 0
vt 0 0
vt 27 0
vt 27 1
vt 0 0
vt 0 0
vt 28 0
vt 28 1
vt 0 0
vt 0 0
vt 29 0
vt 29 1
vt 0 0
vt 0 0
vt 30 0
vt 30 1
vt 0 0
vt 0 0
vt 31 0
vt 31 1
vt 0 0
vt 0 0
vt 32 0
vt 32 1
vt 0 0
vt 0 0
vt 33 0
vt 33 1
vt 0 0
vt 0 0
vt 34 0
vt 34 1
vt 0 0
vt 0 0
vt 35 0
vt 35 1
vt 0 0
vt 0 0
vt 36 0
vt 36 1
vt 0 0
vt 0 0
vt 37 0
vt 37 1
vt 0 0
vt 0 0
vt 38 0
vt 38 1
vt 0 0
vt 0 0
vt 39 0
vt 39 1
vt 0 0
vt 0 0
vt 40 0
vt 40 1
vt 0 0
vt 0 0
vt 41 0
vt 41 1
vt 0 0
vt 0 0
vt 42 0
vt 42 1
vt 0 0
vt 0 0
vt 43 0
vt 43 1
vt 0 0
vt 0 0
vt 44 0
vt 44 1
vt 0 0
vt 0 0
vt 45 0
vt 45 1
vt 0 0
vt 0 0

usemtl Green
usemap Green
f 1/1/1 4/4/4 2/2/2
f 1/1/1 3/3/3 4/4/4
f 5/5/5 8/8/8 6/6/6
f 5/5/5 7/7/7 8/8/8
f 9/9/9 12/12/12 10/10/10
f 9/9/9 11/11/11 12/12/12
f 13/13/13 16/16/16 14/14/14
f 13/13/13 15/15/15 16/16/16
f 17/17/17 20/20/20 18/18/18
f 17/17/17 19/19/19 20/20/20
f 21/21/21 24/24/24 22/22/22
f 21/21/21 23/23/23 24/24/24
f 25/25/25 28/28/28 26/26/26
f 25/25/25 27/27/27 28/28/28
f 29/29/29 32/32/32 30/30/30
f 29/29/29 31/31/31 32/32/32
f 33/33/33 36/36/36 34/34/34
f 33/33/33 35/35/35 36/36/36
f 37/37/37 40/40/40 38/38/38
f 37/37/37 39/39/39 40/40/40
f 41/41/41 44/44/44 42/42/42
f 41/41/41 43/43/43 44/44/44
f 45/45/45 48/48/48 46/46/46
f 45/45/45 47/47/47 48/48/48
f 49/49/49 52/52/52 50/50/50
f 49/49/49 51/51/51 52/52/52
f 53/53/53 56/56/56 54/54/54
f 53/53/53 55/55/55 56/56/56
f 57/57/57 60/60/60 58/58/58
f 57/57/57 59/59/59 60/60/60
f 61/61/61 64/64/64 62/62/62
f 61/61/61 63/63/63 64/64/64
f 65/65/65 68/68/68 66/66/66
f 65/65/65 67/67/67 68/68/68
f 69/69/69 72/72/72 70/70/70
f 69/69/69 71/71/71 72/72/72
f 73/73/73 76/76/76 74/74/74
f 73/73/73 75/75/75 76/76/76
f 77/77/77 80/80/80 78/78/78
f 77/77/77 79/79/79 80/80/80
f 81/81/81 84/84/84 82/82/82
f 81/81/81 83/83/83 84/84/84
f 85/85/85 88/88/88 86/86/86
f 85/85/85 87/87/87 88/88/88
f 89/89/89 92/92/92 90/90/90
f 89/89/89 91/91/91 92/92/92
f 93/93/93 96/96/96 94/94/94
f 93/93/93 95/95/95 96/96/96
f 97/97/97 100/100/100 98/98/98
f 97/97/97 99/99/99 100/100/100
f 101/101/101 104/104/104 102/102/102
f 101/101/101 103/103/103 104/104/104
f 105/105/105 108/108/108 106/106/106
f 105/105/105 107/107/107 108/108/108
f 109/109/109 112/112/112 110/110/110
f 109/109/109 111/111/111 112/112/112
f 113/113/113 116/116/116 114/114/114
f 113/113/113 115/115/115 116/116/116
f 117/117/117 120/120/120 118/118/118
f 117/117/117 119/119/119 120/120/120
f 121/121/121 124/124/124 122/122/122
f 121/121/121 123/123/123 124/124/124
f 125/125/125 128/128/128 126/126/126
f 125/125/125 127/127/127 128/128/128
f 129/129/129 132/132/132 130/130/130
f 129/129/129 131/131/131 132/132/132
f 133/133/133 136/136/136 134/134/134
f 133/133/133 135/135/135 136/136/136
f 137/137/137 140/140/140 138/138/138
f 137/137/137 139/139/139 140/140/140
f 141/141/141 144/144/144 142/142/142
f 141/141/141 143/143/143 144/144/144
f 145/145/145 148/148/148 146/146/146
f 145/145/145 147/147/147 148/148/148
f 149/149/149 152/152/152 150/150/150
f 149/149/149 151/151/151 152/152/152
f 153/153/153 156/156/156 154/154/154
f 153/153/153 155/155/155 156/156/156
f 157/157/157 160/160/160 158/158/158
f 157/157/157 159/159/159 160/160/160
f 161/161/161 164/164/164 162/162/162
f 161/161/161 163/163/163 164/164/164
f 165/165/165 168/168/168 166/166/166
f 165/165/165 167/167/167 168/168/168
f 169/169/169 172/172/172 170/170/170
f 169/169/169 171/171/171 172/172/172
f 173/173/173 176/176/176 174/174/174
f 173/173/173 175/175/175 176/176/176
f 177/177/177 180/180/180 178/178/178
f 177/177/177 179/179/179 180/180/180
f 3/3/3 6/6/6 4/4/4
f 3/3/3 5/5/5 6/6/6
f 7/7/7 10/10/10 8/8/8
f 7/7/7 9/9/9 10/10/10
f 11/11/11 14/14/14 12/12/12
f 11/11/11 13/13/13 14/14/14
f 15/15/15 18/18/18 16/16/16
f 15/15/15 17/17/17 18/18/18
f 19/19/19 22/22/22 20/20/20
f 19/19/19 21/21/21 22/22/22
f 23/23/23 26/26/26 24/24/24
f 23/23/23 25/25/25 26/26/26
f 27/27/27 30/30/30 28/28/28
f 27/27/27 29/29/29 30/30/30
f 31/31/31 34/34/34 32/32/32
f 31/31/31 33/33/33 34/34/34
f 35/35/35 38/38/38 36/36/36
f 35/35/35 37/37/37 38/38/38
f 39/39/39 42/42/42 40/40/40
f 39/39/39 41/41/41 42/42/42
f 43/43/43 46/46/46 44/44/44
f 43/43/43 45/45/45 46/46/46
f 47/47/47 50/50/50 48/48/48
f 47/47/47 49/49/49 50/50/50
f 51/51/51 54/54/54 52/52/52
f 51/51/51 53/53/53 54/54/54
f 55/55/55 58/58/58 56/56/56
f 55/55/55 57/57/57 58/58/58
f 59/59/59 62/62/62 60/60/60
f 59/59/59 61/61/61 62/62/62
f 63/63/63 66/66/66 64/64/64
f 63/63/63 65/65/65 66/66/66
f 67/67/67 70/70/70 68/68/68
f 67/67/67 69/69/69 70/70/70
f 71/71/71 74/74/74 72/72/72
f 71/71/71 73/73/73 74/74/74
f 75/75/75 78/78/78 76/76/76
f 75/75/75 77/77/77 78/78/78
f 79/79/79 82/82/82 80/80/80
f 79/79/79 81/81/81 82/82/82
f 83/83/83 86/86/86 84/84/84
f 83/83/83 85/85/85 86/86/86
f 87/87/87 90/90/90 88/88/88
f 87/87/87 89/89/89 90/90/90
f 91/91/91 94/94/94 92/92/92
f 91/91/91 93/93/93 94/94/94
f 95/95/95 98/98/98 96/96/96
f 95/95/95 97/97/97 98/98/98
f 99/99/99 102/102/102 100/100/100
f 99/99/99 101/101/101 102/102/102
f 103/103/103 106/106/106 104/104/104
f 103/103/103 105/105/105 106/106/106
f 107/107/107 110/110/110 108/108/108
f 107/107/107 109/109/109 110/110/110
f 111/111/111 114/114/114 112/112/112
f 111/111/111 113/113/113 114/114/114
f 115/115/115 118/118/118 116/116/116
f 115/115/115 117/117/117 118/118/118
f 119/119/119 122/122/122 120/120/120
f 119/119/119 121/121/121 122/122/122
f 123/123/123 126/126/126 124/124/124
f 123/123/123 125/125/125 126/126/126
f 127/127/127 130/130/130 128/128/128
f 127/127/127 129/129/129 130/130/130
f 131/131/131 134/134/134 132/132/132
f 131/131/131 133/133/133 134/134/134
f 135/135/135 138/138/138 136/136/136
f 135/135/135 137/137/137 138/138/138
f 139/139/139 142/142/142 140/140/140
f 139/139/139 141/141/141 142/142/142
f 143/143/143 146/146/146 144/144/144
f 143/143/143 145/145/145 146/146/146
f 147/147/147 150/150/150 148/148/148
f 147/147/147 149/149/149 150/150/150
f 151/151/151 154/154/154 152/152/152
f 151/151/151 153/153/153 154/154/154
f 155/155/155 158/158/158 156/156/156
f 155/155/155 157/157/157 158/158/158
f 159/159/159 162/162/162 160/160/160
f 159/159/159 161/161/161 162/162/162
f 163/163/163 166/166/166 164/164/164
f 163/163/163 165/165/165 166/166/166
f 167/167/167 170/170/170 168/168/168
f 167/167/167 169/169/169 170/170/170
f 171/171/171 174/174/174 172/172/172
f 171/171/171 173/173/173 174/174/174
f 175/175/175 178/178/178 176/176/176
f 175/175/175 177/177/177 178/178/178
f 1/1/1 1/1/1 1/1/1
f 1/1/1 1/1/1 1/1/1
f 1/1/1 1/1/1 1/1/1
f 1/1/1 1/1/1 1/1/1
