#Gate Stairs L.obj
#Saturday, April 06, 2019
#11:40:47 AM
#-------

#Gate Stairs L
#-------
g Gate Stairs L
v -82.8066 40.55293 5.65
v -82.8066 40.55293 1.65
v -83.49525 40.55293 5.65
v -83.49525 40.55293 1.65
v -83.49525 41.05326 5.65
v -83.49525 41.05326 1.65
v -84.18391 41.05326 5.65
v -84.18391 41.05326 1.65
v -84.18391 41.5536 5.65
v -84.18391 41.5536 1.65
v -84.87256 41.5536 5.65
v -84.87256 41.5536 1.65
v -84.87256 42.05393 5.65
v -84.87256 42.05393 1.65
v -85.56121 42.05393 5.65
v -85.56121 42.05393 1.65
v -85.56121 42.55427 5.65
v -85.56121 42.55427 1.65
v -86.24986 42.55427 5.65
v -86.24986 42.55427 1.65
v -86.24986 43.0546 5.65
v -86.24986 43.0546 1.65
v -86.93851 43.0546 5.65
v -86.93851 43.0546 1.65
v -86.93851 43.55494 5.65
v -86.93851 43.55494 1.65
v -87.62716 43.55494 5.65
v -87.62716 43.55494 1.65
v -87.62716 44.05527 5.65
v -87.62716 44.05527 1.65
v -88.31581 44.05527 5.65
v -88.31581 44.05527 1.65
v -88.31581 44.5556 5.65
v -88.31581 44.5556 1.65
v -89.00446 44.5556 5.65
v -89.00446 44.5556 1.65
v -89.00446 45.05594 5.65
v -89.00446 45.05594 1.65
v -89.69312 45.05594 5.65
v -89.69312 45.05594 1.65
v -89.69312 45.55627 5.65
v -89.69312 45.55627 1.65
v -90.38177 45.55627 5.65
v -90.38177 45.55627 1.65
v -90.38177 46.05661 5.65
v -90.38177 46.05661 1.65
v -91.07042 46.05661 5.65
v -91.07042 46.05661 1.65
v -91.07042 46.55694 5.65
v -91.07042 46.55694 1.65
v -91.75906 46.55694 5.65
v -91.75906 46.55694 1.65
v -91.75906 47.05727 5.65
v -91.75906 47.05727 1.65
v -92.44772 47.05727 5.65
v -92.44772 47.05727 1.65
v -92.44772 47.55761 5.65
v -92.44772 47.55761 1.65
v -93.13637 47.55761 5.65
v -93.13637 47.55761 1.65
v -93.13637 48.05795 5.65
v -93.13637 48.05795 1.65
v -93.82502 48.05795 5.65
v -93.82502 48.05795 1.65
v -93.82502 48.55828 5.65
v -93.82502 48.55828 1.65
v -94.51367 48.55828 5.65
v -94.51367 48.55828 1.65
v -94.51367 49.05861 5.65
v -94.51367 49.05861 1.65
v -95.20232 49.05861 5.65
v -95.20232 49.05861 1.65
v -95.20232 49.55894 5.65
v -95.20232 49.55894 1.65
v -95.89098 49.55894 5.65
v -95.89098 49.55894 1.65
v -95.89098 50.05928 5.65
v -95.89098 50.05928 1.65
v -96.57963 50.05928 5.65
v -96.57963 50.05928 1.65
v -96.57963 50.55962 5.65
v -96.57963 50.55962 1.65
v -97.26828 50.55962 5.65
v -97.26828 50.55962 1.65
v -97.26828 51.05995 5.65
v -97.26828 51.05995 1.65
v -97.95692 51.05995 5.65
v -97.95692 51.05995 1.65
v -97.95692 51.56028 5.65
v -97.95692 51.56028 1.65
v -98.64558 51.56028 5.65
v -98.64558 51.56028 1.65
v -98.64558 52.06062 5.65
v -98.64558 52.06062 1.65
v -99.33423 52.06062 5.65
v -99.33423 52.06062 1.65
v -99.33423 52.56095 5.65
v -99.33423 52.56095 1.65
v -100.0229 52.56095 5.65
v -100.0229 52.56095 1.65
v -100.0229 53.06129 5.65
v -100.0229 53.06129 1.65
v -100.7115 53.06129 5.65
v -100.7115 53.06129 1.65
v -100.7115 53.56162 5.65
v -100.7115 53.56162 1.65
v -101.4002 53.56162 5.65
v -101.4002 53.56162 1.65
v -101.4002 54.06195 5.65
v -101.4002 54.06195 1.65
v -102.0888 54.06195 5.65
v -102.0888 54.06195 1.65
v -102.0888 54.56229 5.65
v -102.0888 54.56229 1.65
v -102.7775 54.56229 5.65
v -102.7775 54.56229 1.65
v -102.7775 55.06262 5.65
v -102.7775 55.06262 1.65
v -103.4661 55.06262 5.65
v -103.4661 55.06262 1.65
v -103.4661 55.56296 5.65
v -103.4661 55.56296 1.65
v -104.1548 55.56296 5.65
v -104.1548 55.56296 1.65
v -104.1548 56.06329 5.65
v -104.1548 56.06329 1.65
v -104.8434 56.06329 5.65
v -104.8434 56.06329 1.65
v -104.8434 56.56363 5.65
v -104.8434 56.56363 1.65
v -105.5321 56.56363 5.65
v -105.5321 56.56363 1.65
v -105.5321 57.06396 5.65
v -105.5321 57.06396 1.65
v -106.2207 57.06396 5.65
v -106.2207 57.06396 1.65
v -106.2207 57.56429 5.65
v -106.2207 57.56429 1.65
v -106.9094 57.56429 5.65
v -106.9094 57.56429 1.65
v -106.9094 58.06463 5.65
v -106.9094 58.06463 1.65
v -107.598 58.06463 5.65
v -107.598 58.06463 1.65
v -107.598 58.56496 5.65
v -107.598 58.56496 1.65
v -108.2867 58.56496 5.65
v -108.2867 58.56496 1.65
v -108.2867 59.0653 5.65
v -108.2867 59.0653 1.65
v -108.9753 59.0653 5.65
v -108.9753 59.0653 1.65
v -108.9753 59.56563 5.65
v -108.9753 59.56563 1.65
v -109.664 59.56563 5.65
v -109.664 59.56563 1.65
v -109.664 60.06596 5.65
v -109.664 60.06596 1.65
v -110.3526 60.06596 5.65
v -110.3526 60.06596 1.65
v -110.3526 60.5663 5.65
v -110.3526 60.5663 1.65
v -111.0413 60.5663 5.65
v -111.0413 60.5663 1.65
v -111.0413 61.06664 5.65
v -111.0413 61.06664 1.65
v -111.7299 61.06664 5.65
v -111.7299 61.06664 1.65
v -111.7299 61.56697 5.65
v -111.7299 61.56697 1.65
v -112.4186 61.56697 5.65
v -112.4186 61.56697 1.65
v -112.4186 62.0673 5.65
v -112.4186 62.0673 1.65
v -113.1073 62.0673 5.65
v -113.1073 62.0673 1.65

vn 0 -1 0
vn 0 -1 0
vn -0.8237765 -0.5669147 0
vn -0.3414404 -0.9399034 0
vn -0.3414404 -0.9399034 0
vn -0.8237765 -0.5669147 0
vn -0.8237744 -0.5669177 0
vn -0.3414381 -0.9399042 0
vn -0.3414381 -0.9399042 0
vn -0.8237744 -0.5669177 0
vn -0.8237765 -0.5669147 0
vn -0.3414404 -0.9399034 0
vn -0.3414404 -0.9399034 0
vn -0.8237765 -0.5669147 0
vn -0.8237765 -0.5669147 0
vn -0.3414404 -0.9399034 0
vn -0.3414404 -0.9399034 0
vn -0.8237765 -0.5669147 0
vn -0.8237744 -0.5669177 0
vn -0.3414381 -0.9399042 0
vn -0.3414415 -0.9399031 0
vn -0.8237773 -0.5669134 0
vn -0.8237795 -0.5669105 0
vn -0.3414437 -0.9399022 0
vn -0.3414404 -0.9399034 0
vn -0.8237765 -0.5669147 0
vn -0.8237744 -0.5669177 0
vn -0.3414381 -0.9399042 0
vn -0.3414381 -0.9399042 0
vn -0.8237744 -0.5669177 0
vn -0.8237765 -0.5669147 0
vn -0.3414404 -0.9399034 0
vn -0.3414404 -0.9399034 0
vn -0.8237765 -0.5669147 0
vn -0.8237765 -0.5669147 0
vn -0.3414404 -0.9399034 0
vn -0.3414404 -0.9399034 0
vn -0.8237765 -0.5669147 0
vn -0.8237744 -0.5669177 0
vn -0.3414381 -0.9399042 0
vn -0.3414381 -0.9399042 0
vn -0.8237744 -0.5669177 0
vn -0.8237765 -0.5669147 0
vn -0.3414404 -0.9399034 0
vn -0.3414404 -0.9399034 0
vn -0.8237765 -0.5669147 0
vn -0.8237744 -0.5669177 0
vn -0.3414381 -0.9399042 0
vn -0.3414415 -0.9399031 0
vn -0.8237773 -0.5669134 0
vn -0.8237795 -0.5669105 0
vn -0.3414437 -0.9399022 0
vn -0.3414404 -0.9399034 0
vn -0.8237765 -0.5669147 0
vn -0.8237765 -0.5669147 0
vn -0.3414404 -0.9399034 0
vn -0.3414404 -0.9399034 0
vn -0.8237765 -0.5669147 0
vn -0.8237765 -0.5669147 0
vn -0.3414404 -0.9399034 0
vn -0.3414404 -0.9399034 0
vn -0.8237765 -0.5669147 0
vn -0.8237744 -0.5669177 0
vn -0.3414381 -0.9399042 0
vn -0.3414381 -0.9399042 0
vn -0.8237744 -0.5669177 0
vn -0.8237765 -0.5669147 0
vn -0.3414404 -0.9399034 0
vn -0.3414404 -0.9399034 0
vn -0.8237765 -0.5669147 0
vn -0.8237744 -0.5669177 0
vn -0.3414381 -0.9399042 0
vn -0.3414381 -0.9399042 0
vn -0.8237744 -0.5669177 0
vn -0.8237765 -0.5669147 0
vn -0.3414404 -0.9399034 0
vn -0.3414404 -0.9399034 0
vn -0.8237765 -0.5669147 0
vn -0.8237765 -0.5669147 0
vn -0.3414404 -0.9399034 0
vn -0.3414404 -0.9399034 0
vn -0.8237765 -0.5669147 0
vn -0.8237744 -0.5669177 0
vn -0.3414381 -0.9399042 0
vn -0.3414415 -0.9399031 0
vn -0.8237773 -0.5669134 0
vn -0.8237795 -0.5669105 0
vn -0.3414437 -0.9399022 0
vn -0.3414404 -0.9399034 0
vn -0.8237765 -0.5669147 0
vn -0.8237744 -0.5669177 0
vn -0.3414381 -0.9399042 0
vn -0.3414381 -0.9399042 0
vn -0.8237744 -0.5669177 0
vn -0.8237765 -0.5669147 0
vn -0.3414404 -0.9399034 0
vn -0.3414404 -0.9399034 0
vn -0.8237765 -0.5669147 0
vn -0.8237765 -0.5669147 0
vn -0.3414404 -0.9399034 0
vn -0.3414404 -0.9399034 0
vn -0.8237765 -0.5669147 0
vn -0.8237765 -0.5669147 0
vn -0.3414404 -0.9399034 0
vn -0.3414404 -0.9399034 0
vn -0.8237765 -0.5669147 0
vn -0.8237744 -0.5669177 0
vn -0.3414381 -0.9399042 0
vn -0.3414381 -0.9399042 0
vn -0.8237744 -0.5669177 0
vn -0.8237765 -0.5669147 0
vn -0.3414404 -0.9399034 0
vn -0.3414437 -0.9399022 0
vn -0.8237795 -0.5669105 0
vn -0.8237773 -0.5669134 0
vn -0.3414415 -0.9399031 0
vn -0.3414347 -0.9399055 0
vn -0.8237715 -0.5669219 0
vn -0.8237736 -0.566919 0
vn -0.341437 -0.9399046 0
vn -0.3414437 -0.9399022 0
vn -0.8237795 -0.5669105 0
vn -0.8237795 -0.5669105 0
vn -0.3414437 -0.9399022 0
vn -0.3414404 -0.9399034 0
vn -0.8237765 -0.5669147 0
vn -0.8237744 -0.5669177 0
vn -0.3414381 -0.9399042 0
vn -0.3414381 -0.9399042 0
vn -0.8237744 -0.5669177 0
vn -0.8237765 -0.5669147 0
vn -0.3414404 -0.9399034 0
vn -0.3414404 -0.9399034 0
vn -0.8237765 -0.5669147 0
vn -0.8237744 -0.5669177 0
vn -0.3414381 -0.9399042 0
vn -0.3414381 -0.9399042 0
vn -0.8237744 -0.5669177 0
vn -0.8237765 -0.5669147 0
vn -0.3414404 -0.9399034 0
vn -0.3414404 -0.9399034 0
vn -0.8237765 -0.5669147 0
vn -0.8237765 -0.5669147 0
vn -0.3414404 -0.9399034 0
vn -0.3414404 -0.9399034 0
vn -0.8237765 -0.5669147 0
vn -0.8237765 -0.5669147 0
vn -0.3414404 -0.9399034 0
vn -0.3414437 -0.9399022 0
vn -0.8237795 -0.5669105 0
vn -0.8237773 -0.5669134 0
vn -0.3414415 -0.9399031 0
vn -0.3414347 -0.9399055 0
vn -0.8237715 -0.5669219 0
vn -0.8237715 -0.5669219 0
vn -0.3414347 -0.9399055 0
vn -0.3414415 -0.9399031 0
vn -0.8237773 -0.5669134 0
vn -0.8237795 -0.5669105 0
vn -0.3414437 -0.9399022 0
vn -0.3414404 -0.9399034 0
vn -0.8237765 -0.5669147 0
vn -0.8237765 -0.5669147 0
vn -0.3414404 -0.9399034 0
vn -0.3414404 -0.9399034 0
vn -0.8237765 -0.5669147 0
vn -0.8237765 -0.5669147 0
vn -0.3414404 -0.9399034 0
vn -0.3414404 -0.9399034 0
vn -0.8237765 -0.5669147 0
vn 0 -1 0
vn 0 -1 0
vn 0 0 0
vn 0 0 0
vn 0 0 0
vn 0 0 0

vt 0 0
vt 0 1
vt 0 0
vt 0 0
vt 1 0
vt 1 1
vt 0 0
vt 0 0
vt 2 0
vt 2 1
vt 0 0
vt 0 0
vt 3 0
vt 3 1
vt 0 0
vt 0 0
vt 4 0
vt 4 1
vt 0 0
vt 0 0
vt 5 0
vt 5 1
vt 0 0
vt 0 0
vt 6 0
vt 6 1
vt 0 0
vt 0 0
vt 7 0
vt 7 1
vt 0 0
vt 0 0
vt 8 0
vt 8 1
vt 0 0
vt 0 0
vt 9 0
vt 9 1
vt 0 0
vt 0 0
vt 10 0
vt 10 1
vt 0 0
vt 0 0
vt 11 0
vt 11 1
vt 0 0
vt 0 0
vt 12 0
vt 12 1
vt 0 0
vt 0 0
vt 13 0
vt 13 1
vt 0 0
vt 0 0
vt 14 0
vt 14 1
vt 0 0
vt 0 0
vt 15 0
vt 15 1
vt 0 0
vt 0 0
vt 16 0
vt 16 1
vt 0 0
vt 0 0
vt 17 0
vt 17 1
vt 0 0
vt 0 0
vt 18 0
vt 18 1
vt 0 0
vt 0 0
vt 19 0
vt 19 1
vt 0 0
vt 0 0
vt 20 0
vt 20 1
vt 0 0
vt 0 0
vt 21 0
vt 21 1
vt 0 0
vt 0 0
vt 22 0
vt 22 1
vt 0 0
vt 0 0
vt 23 0
vt 23 1
vt 0 0
vt 0 0
vt 24 0
vt 24 1
vt 0 0
vt 0 0
vt 25 0
vt 25 1
vt 0 0
vt 0 0
vt 26 0
vt 26 1
vt 0 0
vt 0 0
vt 27 0
vt 27 1
vt 0 0
vt 0 0
vt 28 0
vt 28 1
vt 0 0
vt 0 0
vt 29 0
vt 29 1
vt 0 0
vt 0 0
vt 30 0
vt 30 1
vt 0 0
vt 0 0
vt 31 0
vt 31 1
vt 0 0
vt 0 0
vt 32 0
vt 32 1
vt 0 0
vt 0 0
vt 33 0
vt 33 1
vt 0 0
vt 0 0
vt 34 0
vt 34 1
vt 0 0
vt 0 0
vt 35 0
vt 35 1
vt 0 0
vt 0 0
vt 36 0
vt 36 1
vt 0 0
vt 0 0
vt 37 0
vt 37 1
vt 0 0
vt 0 0
vt 38 0
vt 38 1
vt 0 0
vt 0 0
vt 39 0
vt 39 1
vt 0 0
vt 0 0
vt 40 0
vt 40 1
vt 0 0
vt 0 0
vt 41 0
vt 41 1
vt 0 0
vt 0 0
vt 42 0
vt 42 1
vt 0 0
vt 0 0
vt 43 0
vt 43 1
vt 0 0
vt 0 0

usemtl Green
usemap Green
f 1/1/1 4/4/4 2/2/2
f 1/1/1 3/3/3 4/4/4
f 5/5/5 8/8/8 6/6/6
f 5/5/5 7/7/7 8/8/8
f 9/9/9 12/12/12 10/10/10
f 9/9/9 11/11/11 12/12/12
f 13/13/13 16/16/16 14/14/14
f 13/13/13 15/15/15 16/16/16
f 17/17/17 20/20/20 18/18/18
f 17/17/17 19/19/19 20/20/20
f 21/21/21 24/24/24 22/22/22
f 21/21/21 23/23/23 24/24/24
f 25/25/25 28/28/28 26/26/26
f 25/25/25 27/27/27 28/28/28
f 29/29/29 32/32/32 30/30/30
f 29/29/29 31/31/31 32/32/32
f 33/33/33 36/36/36 34/34/34
f 33/33/33 35/35/35 36/36/36
f 37/37/37 40/40/40 38/38/38
f 37/37/37 39/39/39 40/40/40
f 41/41/41 44/44/44 42/42/42
f 41/41/41 43/43/43 44/44/44
f 45/45/45 48/48/48 46/46/46
f 45/45/45 47/47/47 48/48/48
f 49/49/49 52/52/52 50/50/50
f 49/49/49 51/51/51 52/52/52
f 53/53/53 56/56/56 54/54/54
f 53/53/53 55/55/55 56/56/56
f 57/57/57 60/60/60 58/58/58
f 57/57/57 59/59/59 60/60/60
f 61/61/61 64/64/64 62/62/62
f 61/61/61 63/63/63 64/64/64
f 65/65/65 68/68/68 66/66/66
f 65/65/65 67/67/67 68/68/68
f 69/69/69 72/72/72 70/70/70
f 69/69/69 71/71/71 72/72/72
f 73/73/73 76/76/76 74/74/74
f 73/73/73 75/75/75 76/76/76
f 77/77/77 80/80/80 78/78/78
f 77/77/77 79/79/79 80/80/80
f 81/81/81 84/84/84 82/82/82
f 81/81/81 83/83/83 84/84/84
f 85/85/85 88/88/88 86/86/86
f 85/85/85 87/87/87 88/88/88
f 89/89/89 92/92/92 90/90/90
f 89/89/89 91/91/91 92/92/92
f 93/93/93 96/96/96 94/94/94
f 93/93/93 95/95/95 96/96/96
f 97/97/97 100/100/100 98/98/98
f 97/97/97 99/99/99 100/100/100
f 101/101/101 104/104/104 102/102/102
f 101/101/101 103/103/103 104/104/104
f 105/105/105 108/108/108 106/106/106
f 105/105/105 107/107/107 108/108/108
f 109/109/109 112/112/112 110/110/110
f 109/109/109 111/111/111 112/112/112
f 113/113/113 116/116/116 114/114/114
f 113/113/113 115/115/115 116/116/116
f 117/117/117 120/120/120 118/118/118
f 117/117/117 119/119/119 120/120/120
f 121/121/121 124/124/124 122/122/122
f 121/121/121 123/123/123 124/124/124
f 125/125/125 128/128/128 126/126/126
f 125/125/125 127/127/127 128/128/128
f 129/129/129 132/132/132 130/130/130
f 129/129/129 131/131/131 132/132/132
f 133/133/133 136/136/136 134/134/134
f 133/133/133 135/135/135 136/136/136
f 137/137/137 140/140/140 138/138/138
f 137/137/137 139/139/139 140/140/140
f 141/141/141 144/144/144 142/142/142
f 141/141/141 143/143/143 144/144/144
f 145/145/145 148/148/148 146/146/146
f 145/145/145 147/147/147 148/148/148
f 149/149/149 152/152/152 150/150/150
f 149/149/149 151/151/151 152/152/152
f 153/153/153 156/156/156 154/154/154
f 153/153/153 155/155/155 156/156/156
f 157/157/157 160/160/160 158/158/158
f 157/157/157 159/159/159 160/160/160
f 161/161/161 164/164/164 162/162/162
f 161/161/161 163/163/163 164/164/164
f 165/165/165 168/168/168 166/166/166
f 165/165/165 167/167/167 168/168/168
f 169/169/169 172/172/172 170/170/170
f 169/169/169 171/171/171 172/172/172
f 3/3/3 6/6/6 4/4/4
f 3/3/3 5/5/5 6/6/6
f 7/7/7 10/10/10 8/8/8
f 7/7/7 9/9/9 10/10/10
f 11/11/11 14/14/14 12/12/12
f 11/11/11 13/13/13 14/14/14
f 15/15/15 18/18/18 16/16/16
f 15/15/15 17/17/17 18/18/18
f 19/19/19 22/22/22 20/20/20
f 19/19/19 21/21/21 22/22/22
f 23/23/23 26/26/26 24/24/24
f 23/23/23 25/25/25 26/26/26
f 27/27/27 30/30/30 28/28/28
f 27/27/27 29/29/29 30/30/30
f 31/31/31 34/34/34 32/32/32
f 31/31/31 33/33/33 34/34/34
f 35/35/35 38/38/38 36/36/36
f 35/35/35 37/37/37 38/38/38
f 39/39/39 42/42/42 40/40/40
f 39/39/39 41/41/41 42/42/42
f 43/43/43 46/46/46 44/44/44
f 43/43/43 45/45/45 46/46/46
f 47/47/47 50/50/50 48/48/48
f 47/47/47 49/49/49 50/50/50
f 51/51/51 54/54/54 52/52/52
f 51/51/51 53/53/53 54/54/54
f 55/55/55 58/58/58 56/56/56
f 55/55/55 57/57/57 58/58/58
f 59/59/59 62/62/62 60/60/60
f 59/59/59 61/61/61 62/62/62
f 63/63/63 66/66/66 64/64/64
f 63/63/63 65/65/65 66/66/66
f 67/67/67 70/70/70 68/68/68
f 67/67/67 69/69/69 70/70/70
f 71/71/71 74/74/74 72/72/72
f 71/71/71 73/73/73 74/74/74
f 75/75/75 78/78/78 76/76/76
f 75/75/75 77/77/77 78/78/78
f 79/79/79 82/82/82 80/80/80
f 79/79/79 81/81/81 82/82/82
f 83/83/83 86/86/86 84/84/84
f 83/83/83 85/85/85 86/86/86
f 87/87/87 90/90/90 88/88/88
f 87/87/87 89/89/89 90/90/90
f 91/91/91 94/94/94 92/92/92
f 91/91/91 93/93/93 94/94/94
f 95/95/95 98/98/98 96/96/96
f 95/95/95 97/97/97 98/98/98
f 99/99/99 102/102/102 100/100/100
f 99/99/99 101/101/101 102/102/102
f 103/103/103 106/106/106 104/104/104
f 103/103/103 105/105/105 106/106/106
f 107/107/107 110/110/110 108/108/108
f 107/107/107 109/109/109 110/110/110
f 111/111/111 114/114/114 112/112/112
f 111/111/111 113/113/113 114/114/114
f 115/115/115 118/118/118 116/116/116
f 115/115/115 117/117/117 118/118/118
f 119/119/119 122/122/122 120/120/120
f 119/119/119 121/121/121 122/122/122
f 123/123/123 126/126/126 124/124/124
f 123/123/123 125/125/125 126/126/126
f 127/127/127 130/130/130 128/128/128
f 127/127/127 129/129/129 130/130/130
f 131/131/131 134/134/134 132/132/132
f 131/131/131 133/133/133 134/134/134
f 135/135/135 138/138/138 136/136/136
f 135/135/135 137/137/137 138/138/138
f 139/139/139 142/142/142 140/140/140
f 139/139/139 141/141/141 142/142/142
f 143/143/143 146/146/146 144/144/144
f 143/143/143 145/145/145 146/146/146
f 147/147/147 150/150/150 148/148/148
f 147/147/147 149/149/149 150/150/150
f 151/151/151 154/154/154 152/152/152
f 151/151/151 153/153/153 154/154/154
f 155/155/155 158/158/158 156/156/156
f 155/155/155 157/157/157 158/158/158
f 159/159/159 162/162/162 160/160/160
f 159/159/159 161/161/161 162/162/162
f 163/163/163 166/166/166 164/164/164
f 163/163/163 165/165/165 166/166/166
f 167/167/167 170/170/170 168/168/168
f 167/167/167 169/169/169 170/170/170
f 1/1/1 1/1/1 1/1/1
f 1/1/1 1/1/1 1/1/1
f 1/1/1 1/1/1 1/1/1
f 1/1/1 1/1/1 1/1/1
