#Inrun.obj
#Friday, 06 September 2019
#22:37:24
#-------

#Inrun
#-------
g Inrun
v 1.3 0 -1.192093E-07
v -1.3 0 1.192093E-07
v 1.300001 1.240258 6.380577
v -1.299999 1.240258 6.380578
v 1.300001 1.418157 7.271737
v -1.299999 1.418157 7.271737
v 1.300001 1.605433 8.162897
v -1.299999 1.605433 8.162897
v 1.300001 1.802143 9.054057
v -1.299999 1.802143 9.054057
v 1.300001 2.008332 9.945216
v -1.299999 2.008332 9.945216
v 1.300001 2.224047 10.83638
v -1.299999 2.224047 10.83638
v 1.300001 2.449324 11.72754
v -1.299999 2.449324 11.72754
v 1.300002 2.684204 12.6187
v -1.299998 2.684204 12.6187
v 1.300002 2.928719 13.50986
v -1.299998 2.928719 13.50986
v 1.300002 3.182907 14.40102
v -1.299998 3.182907 14.40102
v 1.300002 3.446792 15.29218
v -1.299998 3.446792 15.29218
v 1.300002 3.720394 16.18334
v -1.299998 3.720394 16.18334
v 1.300002 4.003726 17.0745
v -1.299998 4.003726 17.0745
v 1.300002 4.29681 17.96565
v -1.299998 4.29681 17.96565
v 1.300002 4.599649 18.85682
v -1.299998 4.599649 18.85682
v 1.300002 4.912249 19.74797
v -1.299998 4.912249 19.74797
v 1.300002 5.23461 20.63913
v -1.299998 5.23461 20.63913
v 1.300002 5.566713 21.53029
v -1.299998 5.566713 21.53029
v 1.300002 5.908548 22.42145
v -1.299998 5.908548 22.42145
v 1.300002 6.260103 23.31261
v -1.299998 6.260103 23.31261
v 1.300004 6.621339 24.20378
v -1.299996 6.621339 24.20378
v 1.300004 6.992221 25.09493
v -1.299996 6.992221 25.09493
v 1.300004 7.372712 25.9861
v -1.299996 7.372712 25.9861
v 1.300004 7.762762 26.87725
v -1.299996 7.762762 26.87725
v 1.300004 8.162311 27.76841
v -1.299996 8.162311 27.76841
v 1.300004 8.571297 28.65957
v -1.299996 8.571297 28.65957
v 1.300004 8.989634 29.55073
v -1.299996 8.989634 29.55073
v 1.300004 9.417263 30.44189
v -1.299996 9.417263 30.44189
v 1.300004 9.854063 31.33305
v -1.299996 9.854063 31.33305
v 1.300004 10.29996 32.22421
v -1.299996 10.29996 32.22421
v 1.300004 10.75482 33.11537
v -1.299996 10.75482 33.11537
v 1.300004 11.21854 34.00653
v -1.299996 11.21854 34.00653
v 1.300004 11.69098 34.89769
v -1.299996 11.69098 34.89769
v 1.300004 12.17201 35.78885
v -1.299996 12.17201 35.78885
v 1.300004 12.66147 36.68001
v -1.299996 12.66147 36.68001
v 1.300004 13.15921 37.57117
v -1.299996 13.15921 37.57117
v 1.300004 13.66505 38.46233
v -1.299996 13.66505 38.46233
v 1.300004 14.17881 39.35349
v -1.299996 14.17881 39.35349
v 1.300004 14.7003 40.24465
v -1.299996 14.7003 40.24465
v 1.300004 15.22932 41.13581
v -1.299996 15.22932 41.13581
v 1.300004 15.76565 42.02697
v -1.299996 15.76565 42.02697
v 1.300004 16.30906 42.91813
v -1.299996 16.30906 42.91813
v 1.300004 16.85933 43.80929
v -1.299996 16.85933 43.80929
v 1.300004 17.41621 44.70045
v -1.299996 17.41621 44.70045
v 1.300004 17.97944 45.59161
v -1.299996 17.97944 45.59161
v 1.300004 18.54876 46.48277
v -1.299996 18.54876 46.48277
v 1.300004 19.12389 47.37393
v -1.299996 19.12389 47.37393
v 1.300008 19.70454 48.26509
v -1.299992 19.70454 48.26509
v 1.300008 20.29043 49.15625
v -1.299992 20.29043 49.15625
v 1.300008 20.88124 50.04741
v -1.299992 20.88124 50.04741
v 1.300008 21.47666 50.93857
v -1.299992 21.47666 50.93857
v 1.300008 22.07639 51.82973
v -1.299992 22.07639 51.82973
v 1.300008 22.68007 52.72089
v -1.299992 22.68007 52.72089
v 1.300008 23.28738 53.61205
v -1.299992 23.28738 53.61205
v 1.300008 23.89798 54.50321
v -1.299992 23.89798 54.50321
v 1.300008 24.51151 55.39437
v -1.299992 24.51151 55.39437
v 1.300008 25.12763 56.28553
v -1.299992 25.12763 56.28553
v 1.300008 25.74597 57.17669
v -1.299992 25.74597 57.17669
v 1.300008 26.36617 58.06785
v -1.299992 26.36617 58.06785
v 1.300008 26.98786 58.95901
v -1.299992 26.98786 58.95901
v 1.300008 27.61067 59.85017
v -1.299992 27.61067 59.85017
v 1.300008 28.23423 60.74133
v -1.299992 28.23423 60.74133
v 1.300008 28.85816 61.63249
v -1.299992 28.85816 61.63249
v 1.300008 29.43792 62.46047
v -1.299992 29.43792 62.46047
v 1.300008 30.01768 63.28846
v -1.299992 30.01768 63.28846
v 1.300008 30.59744 64.11644
v -1.299992 30.59744 64.11644
v 1.300008 31.1772 64.94442
v -1.299992 31.1772 64.94442
v 1.300008 31.75697 65.77241
v -1.299992 31.75697 65.77241
v 1.300008 32.33672 66.60039
v -1.299992 32.33672 66.60039
v 1.300008 32.91648 67.42837
v -1.299992 32.91648 67.42837
v 1.300008 33.49625 68.25636
v -1.299992 33.49625 68.25636
v 1.300008 34.076 69.08434
v -1.299992 34.076 69.08434
v 1.300008 34.65577 69.91232
v -1.299992 34.65577 69.91232
v 1.300008 35.23553 70.7403
v -1.299992 35.23553 70.7403
v 1.300008 35.81528 71.56829
v -1.299992 35.81528 71.56829
v 1.300008 36.39505 72.39627
v -1.299992 36.39505 72.39627
v 1.300008 36.97481 73.22425
v -1.299992 36.97481 73.22425
v 1.300008 37.55457 74.05224
v -1.299992 37.55457 74.05224
v 1.300008 38.13433 74.88022
v -1.299992 38.13433 74.88022
v 1.300008 38.71409 75.70821
v -1.299992 38.71409 75.70821
v 1.300008 39.29385 76.53619
v -1.299992 39.29385 76.53619
v 1.300008 39.87361 77.36417
v -1.299992 39.87361 77.36417
v 1.300008 40.45337 78.19215
v -1.299992 40.45337 78.19215
v 1.300008 41.03313 79.02013
v -1.299992 41.03313 79.02013
v 1.300008 41.61289 79.84812
v -1.299992 41.61289 79.84812
v 1.300008 42.19265 80.67611
v -1.299992 42.19265 80.67611
v 1.300008 42.77241 81.50409
v -1.299992 42.77241 81.50409
v 1.300008 43.35217 82.33207
v -1.299992 43.35217 82.33207
v 1.300008 43.93193 83.16006
v -1.299992 43.93193 83.16006
v 1.300008 44.51169 83.98804
v -1.299992 44.51169 83.98804
v 1.300008 45.09145 84.81602
v -1.299992 45.09145 84.81602
v 1.300008 45.67121 85.644
v -1.299992 45.67121 85.644
v 1.300008 46.25097 86.47199
v -1.299992 46.25097 86.47199
v 1.300008 46.83073 87.29997
v -1.299992 46.83073 87.29997
v 1.300008 47.41049 88.12795
v -1.299992 47.41049 88.12795
v 1.300008 47.99025 88.95594
v -1.299992 47.99025 88.95594
v 1.300008 48.57001 89.78392
v -1.299992 48.57001 89.78392
v 1.300008 49.14977 90.61191
v -1.299992 49.14977 90.61191
v 1.300008 49.72953 91.43989
v -1.299992 49.72953 91.43989

vn -0.190809 -0.9816273 0
vn -0.190809 -0.9816273 0
vn -0.1918919 -0.981416 0
vn -0.1911328 -0.9815643 0
vn -0.2023655 -0.9793101 0
vn -0.1990677 -0.9799858 0
vn -0.2122574 -0.9772139 0
vn -0.2089605 -0.977924 0
vn -0.2221342 -0.9750161 0
vn -0.2188444 -0.9757598 0
vn -0.2319907 -0.972718 0
vn -0.2287075 -0.9734952 0
vn -0.2418178 -0.9703217 0
vn -0.2385459 -0.9711311 0
vn -0.2516114 -0.9678283 0
vn -0.2483507 -0.9686701 0
vn -0.2613625 -0.9652407 0
vn -0.2581174 -0.9661134 0
vn -0.2710704 -0.9625595 0
vn -0.2678391 -0.9634637 0
vn -0.2807255 -0.9597881 0
vn -0.2775137 -0.9607217 0
vn -0.2903166 -0.9569306 0
vn -0.2871271 -0.9578926 0
vn -0.2998368 -0.9539905 0
vn -0.2966716 -0.9549795 0
vn -0.3092855 -0.9509692 0
vn -0.3061439 -0.9519852 0
vn -0.3186524 -0.9478716 0
vn -0.3155399 -0.9489123 0
vn -0.327932 -0.9447014 0
vn -0.3248485 -0.9457661 0
vn -0.3371194 -0.9414619 0
vn -0.3340675 -0.9425492 0
vn -0.3461998 -0.9381608 0
vn -0.3431855 -0.9392676 0
vn -0.3551723 -0.9348009 0
vn -0.3521931 -0.9359273 0
vn -0.3640372 -0.9313844 0
vn -0.3610944 -0.9325293 0
vn -0.3727773 -0.9279208 0
vn -0.3698787 -0.9290801 0
vn -0.3813869 -0.9244155 0
vn -0.3785314 -0.9255884 0
vn -0.3898664 -0.9208714 0
vn -0.3870544 -0.9220569 0
vn -0.3982091 -0.9172947 0
vn -0.3954436 -0.9184902 0
vn -0.4064055 -0.9136928 0
vn -0.40369 -0.9148958 0
vn -0.4144524 -0.910071 0
vn -0.4117867 -0.9112803 0
vn -0.4223386 -0.9064382 0
vn -0.4197283 -0.9076498 0
vn -0.4300743 -0.9027934 0
vn -0.4275116 -0.9040098 0
vn -0.4376335 -0.8991535 0
vn -0.4351352 -0.9003652 0
vn -0.4450301 -0.8955157 0
vn -0.4425809 -0.8967286 0
vn -0.4522445 -0.8918939 0
vn -0.4498617 -0.8930982 0
vn -0.4592841 -0.8882895 0
vn -0.4569556 -0.8894895 0
vn -0.4661377 -0.8847122 0
vn -0.463875 -0.8859007 0
vn -0.4728051 -0.8811671 0
vn -0.4706027 -0.8823453 0
vn -0.4792795 -0.8776624 0
vn -0.4771434 -0.8788255 0
vn -0.4855602 -0.8742033 0
vn -0.4834877 -0.8753511 0
vn -0.4916411 -0.870798 0
vn -0.4896367 -0.8719266 0
vn -0.4975228 -0.8674509 0
vn -0.495584 -0.8685601 0
vn -0.5031984 -0.864171 0
vn -0.5013298 -0.8652563 0
vn -0.5086667 -0.8609635 0
vn -0.5068667 -0.8620245 0
vn -0.513926 -0.8578344 0
vn -0.5121962 -0.8588684 0
vn -0.5189729 -0.8547906 0
vn -0.5173143 -0.8557955 0
vn -0.5238061 -0.8518375 0
vn -0.5222188 -0.8528117 0
vn -0.5284224 -0.8489816 0
vn -0.5269077 -0.8499224 0
vn -0.5328234 -0.8462265 0
vn -0.5313801 -0.8471336 0
vn -0.5370006 -0.843582 0
vn -0.5356335 -0.8444506 0
vn -0.540961 -0.8410476 0
vn -0.5396641 -0.8418804 0
vn -0.5446973 -0.8386326 0
vn -0.5434775 -0.8394238 0
vn -0.5482096 -0.836341 0
vn -0.5470633 -0.8370913 0
vn -0.5514965 -0.8341772 0
vn -0.5504261 -0.8348839 0
vn -0.5545565 -0.8321459 0
vn -0.5535616 -0.8328082 0
vn -0.5573964 -0.8302464 0
vn -0.5564739 -0.8308651 0
vn -0.5600024 -0.828491 0
vn -0.5591605 -0.8290594 0
vn -0.5623823 -0.8268775 0
vn -0.5616131 -0.8274 0
vn -0.5645332 -0.8254104 0
vn -0.5638421 -0.8258826 0
vn -0.5664552 -0.8240925 0
vn -0.5658396 -0.8245153 0
vn -0.5681491 -0.8229255 0
vn -0.5676099 -0.8232976 0
vn -0.5696093 -0.8219155 0
vn -0.5691488 -0.8222346 0
vn -0.570841 -0.8210607 0
vn -0.5704553 -0.8213286 0
vn -0.5718443 -0.8203622 0
vn -0.5715354 -0.8205774 0
vn -0.5726137 -0.8198254 0
vn -0.5723834 -0.819986 0
vn -0.5731519 -0.819449 0
vn -0.5729979 -0.8195568 0
vn -0.5734606 -0.8192331 0
vn -0.5733833 -0.8192872 0
vn -0.5735626 -0.8191618 0
vn -0.57355 -0.8191707 0
vn -0.5735767 -0.8191519 0
vn -0.5735763 -0.8191522 0
vn -0.5735763 -0.8191522 0
vn -0.5735767 -0.8191519 0
vn -0.573577 -0.8191516 0
vn -0.5735765 -0.8191521 0
vn -0.573576 -0.8191523 0
vn -0.5735768 -0.8191518 0
vn -0.573576 -0.8191524 0
vn -0.5735757 -0.8191527 0
vn -0.5735781 -0.819151 0
vn -0.5735772 -0.8191516 0
vn -0.5735765 -0.819152 0
vn -0.5735776 -0.8191512 0
vn -0.573576 -0.8191524 0
vn -0.5735757 -0.8191527 0
vn -0.5735756 -0.8191526 0
vn -0.573576 -0.8191524 0
vn -0.5735776 -0.8191512 0
vn -0.5735765 -0.8191521 0
vn -0.5735748 -0.8191532 0
vn -0.5735769 -0.8191518 0
vn -0.5735769 -0.8191518 0
vn -0.5735748 -0.8191532 0
vn -0.5735788 -0.8191504 0
vn -0.5735788 -0.8191504 0
vn -0.5735748 -0.8191532 0
vn -0.5735769 -0.8191518 0
vn -0.5735769 -0.8191518 0
vn -0.5735748 -0.8191532 0
vn -0.5735765 -0.819152 0
vn -0.5735776 -0.8191512 0
vn -0.573576 -0.8191524 0
vn -0.5735757 -0.8191527 0
vn -0.5735756 -0.8191526 0
vn -0.573576 -0.8191524 0
vn -0.5735776 -0.8191512 0
vn -0.5735765 -0.8191521 0
vn -0.5735772 -0.8191516 0
vn -0.5735781 -0.819151 0
vn -0.5735756 -0.8191526 0
vn -0.573576 -0.8191524 0
vn -0.5735753 -0.8191528 0
vn -0.5735753 -0.8191528 0
vn -0.573576 -0.8191524 0
vn -0.5735757 -0.8191527 0
vn -0.5735781 -0.819151 0
vn -0.5735772 -0.8191516 0
vn -0.5735765 -0.819152 0
vn -0.5735776 -0.8191512 0
vn -0.573576 -0.8191524 0
vn -0.5735757 -0.8191527 0
vn -0.5735763 -0.8191521 0
vn -0.5735763 -0.8191521 0
vn -0.5735773 -0.8191515 0
vn -0.5735769 -0.8191518 0
vn -0.5735745 -0.8191534 0
vn -0.5735762 -0.8191522 0
vn -0.5735769 -0.8191518 0
vn -0.5735748 -0.8191532 0
vn -0.5735788 -0.8191504 0
vn -0.5735788 -0.8191504 0
vn -0.5735748 -0.8191532 0
vn -0.5735769 -0.8191518 0
vn -0.5735751 -0.819153 0
vn -0.5735739 -0.8191538 0
vn -0.5735756 -0.8191526 0
vn -0.573576 -0.8191524 0
vn -0.5735776 -0.8191512 0
vn -0.5735765 -0.8191521 0
vn -0.5735788 -0.8191503 0
vn -0.5735788 -0.8191503 0

vt NaN -Infinity
vt NaN Infinity
vt Infinity -Infinity
vt Infinity Infinity
vt Infinity -Infinity
vt Infinity Infinity
vt Infinity -Infinity
vt Infinity Infinity
vt Infinity -Infinity
vt Infinity Infinity
vt Infinity -Infinity
vt Infinity Infinity
vt Infinity -Infinity
vt Infinity Infinity
vt Infinity -Infinity
vt Infinity Infinity
vt Infinity -Infinity
vt Infinity Infinity
vt Infinity -Infinity
vt Infinity Infinity
vt Infinity -Infinity
vt Infinity Infinity
vt Infinity -Infinity
vt Infinity Infinity
vt Infinity -Infinity
vt Infinity Infinity
vt Infinity -Infinity
vt Infinity Infinity
vt Infinity -Infinity
vt Infinity Infinity
vt Infinity -Infinity
vt Infinity Infinity
vt Infinity -Infinity
vt Infinity Infinity
vt Infinity -Infinity
vt Infinity Infinity
vt Infinity -Infinity
vt Infinity Infinity
vt Infinity -Infinity
vt Infinity Infinity
vt Infinity -Infinity
vt Infinity Infinity
vt Infinity -Infinity
vt Infinity Infinity
vt Infinity -Infinity
vt Infinity Infinity
vt Infinity -Infinity
vt Infinity Infinity
vt Infinity -Infinity
vt Infinity Infinity
vt Infinity -Infinity
vt Infinity Infinity
vt Infinity -Infinity
vt Infinity Infinity
vt Infinity -Infinity
vt Infinity Infinity
vt Infinity -Infinity
vt Infinity Infinity
vt Infinity -Infinity
vt Infinity Infinity
vt Infinity -Infinity
vt Infinity Infinity
vt Infinity -Infinity
vt Infinity Infinity
vt Infinity -Infinity
vt Infinity Infinity
vt Infinity -Infinity
vt Infinity Infinity
vt Infinity -Infinity
vt Infinity Infinity
vt Infinity -Infinity
vt Infinity Infinity
vt Infinity -Infinity
vt Infinity Infinity
vt Infinity -Infinity
vt Infinity Infinity
vt Infinity -Infinity
vt Infinity Infinity
vt Infinity -Infinity
vt Infinity Infinity
vt Infinity -Infinity
vt Infinity Infinity
vt Infinity -Infinity
vt Infinity Infinity
vt Infinity -Infinity
vt Infinity Infinity
vt Infinity -Infinity
vt Infinity Infinity
vt Infinity -Infinity
vt Infinity Infinity
vt Infinity -Infinity
vt Infinity Infinity
vt Infinity -Infinity
vt Infinity Infinity
vt Infinity -Infinity
vt Infinity Infinity
vt Infinity -Infinity
vt Infinity Infinity
vt Infinity -Infinity
vt Infinity Infinity
vt Infinity -Infinity
vt Infinity Infinity
vt Infinity -Infinity
vt Infinity Infinity
vt Infinity -Infinity
vt Infinity Infinity
vt Infinity -Infinity
vt Infinity Infinity
vt Infinity -Infinity
vt Infinity Infinity
vt Infinity -Infinity
vt Infinity Infinity
vt Infinity -Infinity
vt Infinity Infinity
vt Infinity -Infinity
vt Infinity Infinity
vt Infinity -Infinity
vt Infinity Infinity
vt Infinity -Infinity
vt Infinity Infinity
vt Infinity -Infinity
vt Infinity Infinity
vt Infinity -Infinity
vt Infinity Infinity
vt Infinity -Infinity
vt Infinity Infinity
vt Infinity -Infinity
vt Infinity Infinity
vt Infinity -Infinity
vt Infinity Infinity
vt Infinity -Infinity
vt Infinity Infinity
vt Infinity -Infinity
vt Infinity Infinity
vt Infinity -Infinity
vt Infinity Infinity
vt Infinity -Infinity
vt Infinity Infinity
vt Infinity -Infinity
vt Infinity Infinity
vt Infinity -Infinity
vt Infinity Infinity
vt Infinity -Infinity
vt Infinity Infinity
vt Infinity -Infinity
vt Infinity Infinity
vt Infinity -Infinity
vt Infinity Infinity
vt Infinity -Infinity
vt Infinity Infinity
vt Infinity -Infinity
vt Infinity Infinity
vt Infinity -Infinity
vt Infinity Infinity
vt Infinity -Infinity
vt Infinity Infinity
vt Infinity -Infinity
vt Infinity Infinity
vt Infinity -Infinity
vt Infinity Infinity
vt Infinity -Infinity
vt Infinity Infinity
vt Infinity -Infinity
vt Infinity Infinity
vt Infinity -Infinity
vt Infinity Infinity
vt Infinity -Infinity
vt Infinity Infinity
vt Infinity -Infinity
vt Infinity Infinity
vt Infinity -Infinity
vt Infinity Infinity
vt Infinity -Infinity
vt Infinity Infinity
vt Infinity -Infinity
vt Infinity Infinity
vt Infinity -Infinity
vt Infinity Infinity
vt Infinity -Infinity
vt Infinity Infinity
vt Infinity -Infinity
vt Infinity Infinity
vt Infinity -Infinity
vt Infinity Infinity
vt Infinity -Infinity
vt Infinity Infinity
vt Infinity -Infinity
vt Infinity Infinity
vt Infinity -Infinity
vt Infinity Infinity
vt Infinity -Infinity
vt Infinity Infinity
vt Infinity -Infinity
vt Infinity Infinity
vt Infinity -Infinity
vt Infinity Infinity
vt Infinity -Infinity
vt Infinity Infinity
vt Infinity -Infinity
vt Infinity Infinity

usemtl Concrete
usemap Concrete
f 1/1/1 4/4/4 2/2/2
f 1/1/1 3/3/3 4/4/4
f 3/3/3 6/6/6 4/4/4
f 3/3/3 5/5/5 6/6/6
f 5/5/5 8/8/8 6/6/6
f 5/5/5 7/7/7 8/8/8
f 7/7/7 10/10/10 8/8/8
f 7/7/7 9/9/9 10/10/10
f 9/9/9 12/12/12 10/10/10
f 9/9/9 11/11/11 12/12/12
f 11/11/11 14/14/14 12/12/12
f 11/11/11 13/13/13 14/14/14
f 13/13/13 16/16/16 14/14/14
f 13/13/13 15/15/15 16/16/16
f 15/15/15 18/18/18 16/16/16
f 15/15/15 17/17/17 18/18/18
f 17/17/17 20/20/20 18/18/18
f 17/17/17 19/19/19 20/20/20
f 19/19/19 22/22/22 20/20/20
f 19/19/19 21/21/21 22/22/22
f 21/21/21 24/24/24 22/22/22
f 21/21/21 23/23/23 24/24/24
f 23/23/23 26/26/26 24/24/24
f 23/23/23 25/25/25 26/26/26
f 25/25/25 28/28/28 26/26/26
f 25/25/25 27/27/27 28/28/28
f 27/27/27 30/30/30 28/28/28
f 27/27/27 29/29/29 30/30/30
f 29/29/29 32/32/32 30/30/30
f 29/29/29 31/31/31 32/32/32
f 31/31/31 34/34/34 32/32/32
f 31/31/31 33/33/33 34/34/34
f 33/33/33 36/36/36 34/34/34
f 33/33/33 35/35/35 36/36/36
f 35/35/35 38/38/38 36/36/36
f 35/35/35 37/37/37 38/38/38
f 37/37/37 40/40/40 38/38/38
f 37/37/37 39/39/39 40/40/40
f 39/39/39 42/42/42 40/40/40
f 39/39/39 41/41/41 42/42/42
f 41/41/41 44/44/44 42/42/42
f 41/41/41 43/43/43 44/44/44
f 43/43/43 46/46/46 44/44/44
f 43/43/43 45/45/45 46/46/46
f 45/45/45 48/48/48 46/46/46
f 45/45/45 47/47/47 48/48/48
f 47/47/47 50/50/50 48/48/48
f 47/47/47 49/49/49 50/50/50
f 49/49/49 52/52/52 50/50/50
f 49/49/49 51/51/51 52/52/52
f 51/51/51 54/54/54 52/52/52
f 51/51/51 53/53/53 54/54/54
f 53/53/53 56/56/56 54/54/54
f 53/53/53 55/55/55 56/56/56
f 55/55/55 58/58/58 56/56/56
f 55/55/55 57/57/57 58/58/58
f 57/57/57 60/60/60 58/58/58
f 57/57/57 59/59/59 60/60/60
f 59/59/59 62/62/62 60/60/60
f 59/59/59 61/61/61 62/62/62
f 61/61/61 64/64/64 62/62/62
f 61/61/61 63/63/63 64/64/64
f 63/63/63 66/66/66 64/64/64
f 63/63/63 65/65/65 66/66/66
f 65/65/65 68/68/68 66/66/66
f 65/65/65 67/67/67 68/68/68
f 67/67/67 70/70/70 68/68/68
f 67/67/67 69/69/69 70/70/70
f 69/69/69 72/72/72 70/70/70
f 69/69/69 71/71/71 72/72/72
f 71/71/71 74/74/74 72/72/72
f 71/71/71 73/73/73 74/74/74
f 73/73/73 76/76/76 74/74/74
f 73/73/73 75/75/75 76/76/76
f 75/75/75 78/78/78 76/76/76
f 75/75/75 77/77/77 78/78/78
f 77/77/77 80/80/80 78/78/78
f 77/77/77 79/79/79 80/80/80
f 79/79/79 82/82/82 80/80/80
f 79/79/79 81/81/81 82/82/82
f 81/81/81 84/84/84 82/82/82
f 81/81/81 83/83/83 84/84/84
f 83/83/83 86/86/86 84/84/84
f 83/83/83 85/85/85 86/86/86
f 85/85/85 88/88/88 86/86/86
f 85/85/85 87/87/87 88/88/88
f 87/87/87 90/90/90 88/88/88
f 87/87/87 89/89/89 90/90/90
f 89/89/89 92/92/92 90/90/90
f 89/89/89 91/91/91 92/92/92
f 91/91/91 94/94/94 92/92/92
f 91/91/91 93/93/93 94/94/94
f 93/93/93 96/96/96 94/94/94
f 93/93/93 95/95/95 96/96/96
f 95/95/95 98/98/98 96/96/96
f 95/95/95 97/97/97 98/98/98
f 97/97/97 100/100/100 98/98/98
f 97/97/97 99/99/99 100/100/100
f 99/99/99 102/102/102 100/100/100
f 99/99/99 101/101/101 102/102/102
f 101/101/101 104/104/104 102/102/102
f 101/101/101 103/103/103 104/104/104
f 103/103/103 106/106/106 104/104/104
f 103/103/103 105/105/105 106/106/106
f 105/105/105 108/108/108 106/106/106
f 105/105/105 107/107/107 108/108/108
f 107/107/107 110/110/110 108/108/108
f 107/107/107 109/109/109 110/110/110
f 109/109/109 112/112/112 110/110/110
f 109/109/109 111/111/111 112/112/112
f 111/111/111 114/114/114 112/112/112
f 111/111/111 113/113/113 114/114/114
f 113/113/113 116/116/116 114/114/114
f 113/113/113 115/115/115 116/116/116
f 115/115/115 118/118/118 116/116/116
f 115/115/115 117/117/117 118/118/118
f 117/117/117 120/120/120 118/118/118
f 117/117/117 119/119/119 120/120/120
f 119/119/119 122/122/122 120/120/120
f 119/119/119 121/121/121 122/122/122
f 121/121/121 124/124/124 122/122/122
f 121/121/121 123/123/123 124/124/124
f 123/123/123 126/126/126 124/124/124
f 123/123/123 125/125/125 126/126/126
f 125/125/125 128/128/128 126/126/126
f 125/125/125 127/127/127 128/128/128
f 127/127/127 130/130/130 128/128/128
f 127/127/127 129/129/129 130/130/130
f 129/129/129 132/132/132 130/130/130
f 129/129/129 131/131/131 132/132/132
f 131/131/131 134/134/134 132/132/132
f 131/131/131 133/133/133 134/134/134
f 133/133/133 136/136/136 134/134/134
f 133/133/133 135/135/135 136/136/136
f 135/135/135 138/138/138 136/136/136
f 135/135/135 137/137/137 138/138/138
f 137/137/137 140/140/140 138/138/138
f 137/137/137 139/139/139 140/140/140
f 139/139/139 142/142/142 140/140/140
f 139/139/139 141/141/141 142/142/142
f 141/141/141 144/144/144 142/142/142
f 141/141/141 143/143/143 144/144/144
f 143/143/143 146/146/146 144/144/144
f 143/143/143 145/145/145 146/146/146
f 145/145/145 148/148/148 146/146/146
f 145/145/145 147/147/147 148/148/148
f 147/147/147 150/150/150 148/148/148
f 147/147/147 149/149/149 150/150/150
f 149/149/149 152/152/152 150/150/150
f 149/149/149 151/151/151 152/152/152
f 151/151/151 154/154/154 152/152/152
f 151/151/151 153/153/153 154/154/154
f 153/153/153 156/156/156 154/154/154
f 153/153/153 155/155/155 156/156/156
f 155/155/155 158/158/158 156/156/156
f 155/155/155 157/157/157 158/158/158
f 157/157/157 160/160/160 158/158/158
f 157/157/157 159/159/159 160/160/160
f 159/159/159 162/162/162 160/160/160
f 159/159/159 161/161/161 162/162/162
f 161/161/161 164/164/164 162/162/162
f 161/161/161 163/163/163 164/164/164
f 163/163/163 166/166/166 164/164/164
f 163/163/163 165/165/165 166/166/166
f 165/165/165 168/168/168 166/166/166
f 165/165/165 167/167/167 168/168/168
f 167/167/167 170/170/170 168/168/168
f 167/167/167 169/169/169 170/170/170
f 169/169/169 172/172/172 170/170/170
f 169/169/169 171/171/171 172/172/172
f 171/171/171 174/174/174 172/172/172
f 171/171/171 173/173/173 174/174/174
f 173/173/173 176/176/176 174/174/174
f 173/173/173 175/175/175 176/176/176
f 175/175/175 178/178/178 176/176/176
f 175/175/175 177/177/177 178/178/178
f 177/177/177 180/180/180 178/178/178
f 177/177/177 179/179/179 180/180/180
f 179/179/179 182/182/182 180/180/180
f 179/179/179 181/181/181 182/182/182
f 181/181/181 184/184/184 182/182/182
f 181/181/181 183/183/183 184/184/184
f 183/183/183 186/186/186 184/184/184
f 183/183/183 185/185/185 186/186/186
f 185/185/185 188/188/188 186/186/186
f 185/185/185 187/187/187 188/188/188
f 187/187/187 190/190/190 188/188/188
f 187/187/187 189/189/189 190/190/190
f 189/189/189 192/192/192 190/190/190
f 189/189/189 191/191/191 192/192/192
f 191/191/191 194/194/194 192/192/192
f 191/191/191 193/193/193 194/194/194
f 193/193/193 196/196/196 194/194/194
f 193/193/193 195/195/195 196/196/196
f 195/195/195 198/198/198 196/196/196
f 195/195/195 197/197/197 198/198/198
f 197/197/197 200/200/200 198/198/198
f 197/197/197 199/199/199 200/200/200
