#Inrun.obj
#Tuesday, April 02, 2019
#11:31:50 PM
#-------

#Inrun
#-------
g Inrun
v 0 0 1.4
v 0 0 -1.4
v -5.779633 0.967179 1.4
v -5.779633 0.967179 -1.4
v -6.676327 1.123233 1.4
v -6.676327 1.123233 -1.4
v -7.573017 1.291341 1.4
v -7.573017 1.291341 -1.4
v -8.469707 1.47158 1.4
v -8.469707 1.47158 -1.4
v -9.366402 1.664021 1.4
v -9.366402 1.664021 -1.4
v -10.2631 1.868729 1.4
v -10.2631 1.868729 -1.4
v -11.15979 2.085757 1.4
v -11.15979 2.085757 -1.4
v -12.05648 2.31516 1.4
v -12.05648 2.31516 -1.4
v -12.95317 2.556978 1.4
v -12.95317 2.556978 -1.4
v -13.84986 2.811243 1.4
v -13.84986 2.811243 -1.4
v -14.74656 3.077979 1.4
v -14.74656 3.077979 -1.4
v -15.64325 3.357203 1.4
v -15.64325 3.357203 -1.4
v -16.53994 3.64891 1.4
v -16.53994 3.64891 -1.4
v -17.43663 3.953098 1.4
v -17.43663 3.953098 -1.4
v -18.33332 4.269743 1.4
v -18.33332 4.269743 -1.4
v -19.23001 4.598814 1.4
v -19.23001 4.598814 -1.4
v -20.12671 4.940265 1.4
v -20.12671 4.940265 -1.4
v -21.0234 5.294027 1.4
v -21.0234 5.294027 -1.4
v -21.92009 5.660031 1.4
v -21.92009 5.660031 -1.4
v -22.81678 6.038182 1.4
v -22.81678 6.038182 -1.4
v -23.71347 6.42837 1.4
v -23.71347 6.42837 -1.4
v -24.61016 6.830477 1.4
v -24.61016 6.830477 -1.4
v -25.50686 7.244349 1.4
v -25.50686 7.244349 -1.4
v -26.40355 7.669828 1.4
v -26.40355 7.669828 -1.4
v -27.30024 8.106736 1.4
v -27.30024 8.106736 -1.4
v -28.19693 8.554867 1.4
v -28.19693 8.554867 -1.4
v -29.09362 9.014008 1.4
v -29.09362 9.014008 -1.4
v -29.99031 9.483906 1.4
v -29.99031 9.483906 -1.4
v -30.88701 9.96431 1.4
v -30.88701 9.96431 -1.4
v -31.7837 10.45493 1.4
v -31.7837 10.45493 -1.4
v -32.68039 10.95547 1.4
v -32.68039 10.95547 -1.4
v -33.57708 11.46559 1.4
v -33.57708 11.46559 -1.4
v -34.47377 11.98495 1.4
v -34.47377 11.98495 -1.4
v -35.37046 12.51318 1.4
v -35.37046 12.51318 -1.4
v -36.26716 13.04989 1.4
v -36.26716 13.04989 -1.4
v -37.16385 13.59468 1.4
v -37.16385 13.59468 -1.4
v -38.06054 14.14709 1.4
v -38.06054 14.14709 -1.4
v -38.95723 14.70669 1.4
v -38.95723 14.70669 -1.4
v -39.85392 15.27301 1.4
v -39.85392 15.27301 -1.4
v -40.75062 15.84555 1.4
v -40.75062 15.84555 -1.4
v -41.64731 16.42381 1.4
v -41.64731 16.42381 -1.4
v -42.544 17.00727 1.4
v -42.544 17.00727 -1.4
v -43.4407 17.59538 1.4
v -43.4407 17.59538 -1.4
v -44.33738 18.18761 1.4
v -44.33738 18.18761 -1.4
v -45.23408 18.78338 1.4
v -45.23408 18.78338 -1.4
v -46.13077 19.38212 1.4
v -46.13077 19.38212 -1.4
v -47.02746 19.98324 1.4
v -47.02746 19.98324 -1.4
v -47.92416 20.58617 1.4
v -47.92416 20.58617 -1.4
v -48.82084 21.19029 1.4
v -48.82084 21.19029 -1.4
v -49.71754 21.79502 1.4
v -49.71754 21.79502 -1.4
v -50.55391 22.35915 1.4
v -50.55391 22.35915 -1.4
v -51.39027 22.92329 1.4
v -51.39027 22.92329 -1.4
v -52.22663 23.48742 1.4
v -52.22663 23.48742 -1.4
v -53.063 24.05156 1.4
v -53.063 24.05156 -1.4
v -53.89936 24.6157 1.4
v -53.89936 24.6157 -1.4
v -54.73573 25.17983 1.4
v -54.73573 25.17983 -1.4
v -55.57209 25.74397 1.4
v -55.57209 25.74397 -1.4
v -56.40846 26.3081 1.4
v -56.40846 26.3081 -1.4
v -57.24482 26.87224 1.4
v -57.24482 26.87224 -1.4
v -58.08119 27.43637 1.4
v -58.08119 27.43637 -1.4
v -58.91755 28.00051 1.4
v -58.91755 28.00051 -1.4
v -59.75392 28.56464 1.4
v -59.75392 28.56464 -1.4
v -60.59028 29.12878 1.4
v -60.59028 29.12878 -1.4
v -61.42665 29.69291 1.4
v -61.42665 29.69291 -1.4
v -62.26301 30.25705 1.4
v -62.26301 30.25705 -1.4
v -63.09938 30.82118 1.4
v -63.09938 30.82118 -1.4
v -63.93574 31.38532 1.4
v -63.93574 31.38532 -1.4
v -64.77211 31.94946 1.4
v -64.77211 31.94946 -1.4
v -65.60847 32.51359 1.4
v -65.60847 32.51359 -1.4
v -66.44484 33.07772 1.4
v -66.44484 33.07772 -1.4
v -67.2812 33.64186 1.4
v -67.2812 33.64186 -1.4
v -68.11757 34.20599 1.4
v -68.11757 34.20599 -1.4
v -68.95393 34.77013 1.4
v -68.95393 34.77013 -1.4
v -69.7903 35.33427 1.4
v -69.7903 35.33427 -1.4
v -70.62666 35.8984 1.4
v -70.62666 35.8984 -1.4
v -71.46303 36.46254 1.4
v -71.46303 36.46254 -1.4
v -72.29939 37.02667 1.4
v -72.29939 37.02667 -1.4

vn -0.1650476 -0.9862856 0
vn -0.1650476 -0.9862856 0
vn -0.166567 -0.9860301 0
vn -0.1655096 -0.9862082 0
vn -0.1800059 -0.9836655 0
vn -0.1757357 -0.9844374 0
vn -0.192808 -0.9812366 0
vn -0.1885423 -0.982065 0
vn -0.205589 -0.9786384 0
vn -0.2013316 -0.9795232 0
vn -0.2183342 -0.9758741 0
vn -0.2140905 -0.9768139 0
vn -0.2310282 -0.9729471 0
vn -0.2268033 -0.9739406 0
vn -0.2436606 -0.9698606 0
vn -0.2394571 -0.970907 0
vn -0.2562151 -0.9666198 0
vn -0.2520398 -0.9677169 0
vn -0.268676 -0.9632307 0
vn -0.2645334 -0.9643765 0
vn -0.2810295 -0.9596991 0
vn -0.2769242 -0.9608918 0
vn -0.2932634 -0.9560317 0
vn -0.2891992 -0.9572689 0
vn -0.3053581 -0.9522376 0
vn -0.301343 -0.9535159 0
vn -0.3173036 -0.948324 0
vn -0.3133385 -0.9496415 0
vn -0.3290844 -0.9443005 0
vn -0.3251766 -0.9456533 0
vn -0.3406865 -0.940177 0
vn -0.3368394 -0.9415621 0
vn -0.3520974 -0.9359634 0
vn -0.3483156 -0.9373774 0
vn -0.3632987 -0.9316727 0
vn -0.359589 -0.9331108 0
vn -0.3742836 -0.9273143 0
vn -0.370646 -0.9287743 0
vn -0.3850367 -0.9229013 0
vn -0.3814788 -0.9243775 0
vn -0.3955447 -0.9184467 0
vn -0.3920695 -0.9199356 0
vn -0.4058014 -0.9139612 0
vn -0.4024105 -0.9154593 0
vn -0.415788 -0.9094616 0
vn -0.4124899 -0.9109622 0
vn -0.4254974 -0.9049597 0
vn -0.4222915 -0.9064601 0
vn -0.4349225 -0.9004679 0
vn -0.4318127 -0.9019633 0
vn -0.4440483 -0.8960028 0
vn -0.4410401 -0.8974874 0
vn -0.4528718 -0.8915757 0
vn -0.4499639 -0.8930468 0
vn -0.461378 -0.8872037 0
vn -0.4585785 -0.8886539 0
vn -0.4695654 -0.8828977 0
vn -0.4668711 -0.8843254 0
vn -0.4774239 -0.8786731 0
vn -0.4748414 -0.8800713 0
vn -0.4849506 -0.8745416 0
vn -0.4824781 -0.8759081 0
vn -0.4921312 -0.8705211 0
vn -0.4897768 -0.8718479 0
vn -0.4989671 -0.866621 0
vn -0.496726 -0.8679075 0
vn -0.5054541 -0.8628534 0
vn -0.5033308 -0.8640938 0
vn -0.511582 -0.8592344 0
vn -0.5095794 -0.8604236 0
vn -0.5173532 -0.855772 0
vn -0.5154685 -0.8569085 0
vn -0.5227588 -0.8524806 0
vn -0.5209979 -0.8535579 0
vn -0.5277989 -0.8493693 0
vn -0.5261589 -0.8503863 0
vn -0.5324728 -0.8464471 0
vn -0.5309555 -0.8473997 0
vn -0.5367728 -0.8437269 0
vn -0.5353811 -0.8446106 0
vn -0.5406971 -0.8412173 0
vn -0.5394304 -0.8420302 0
vn -0.5442463 -0.8389255 0
vn -0.5431047 -0.8396649 0
vn -0.5474223 -0.8368565 0
vn -0.5464048 -0.8375212 0
vn -0.5502198 -0.8350199 0
vn -0.5493296 -0.8356058 0
vn -0.5526362 -0.8334226 0
vn -0.5518729 -0.8339283 0
vn -0.5546693 -0.8320709 0
vn -0.5540342 -0.8324938 0
vn -0.5563253 -0.8309646 0
vn -0.5558147 -0.8313062 0
vn -0.5576014 -0.8301088 0
vn -0.5572185 -0.8303659 0
vn -0.5584921 -0.8295099 0
vn -0.5582381 -0.8296808 0
vn -0.5590022 -0.8291662 0
vn -0.5588741 -0.8292525 0
vn -0.5591708 -0.8290525 0
vn -0.5591501 -0.8290664 0
vn -0.5591934 -0.8290372 0
vn -0.559193 -0.8290375 0
vn -0.559193 -0.8290375 0
vn -0.5591934 -0.8290372 0
vn -0.5591925 -0.8290378 0
vn -0.5591925 -0.8290378 0
vn -0.5591934 -0.8290372 0
vn -0.559193 -0.8290375 0
vn -0.559193 -0.8290375 0
vn -0.5591934 -0.8290372 0
vn -0.5591923 -0.8290381 0
vn -0.5591924 -0.8290379 0
vn -0.5591924 -0.8290379 0
vn -0.5591923 -0.8290381 0
vn -0.5591934 -0.8290372 0
vn -0.559193 -0.8290375 0
vn -0.559193 -0.8290375 0
vn -0.5591934 -0.8290372 0
vn -0.5591925 -0.8290378 0
vn -0.5591925 -0.8290378 0
vn -0.5591934 -0.8290372 0
vn -0.559193 -0.8290375 0
vn -0.559193 -0.8290375 0
vn -0.5591934 -0.8290372 0
vn -0.5591925 -0.8290378 0
vn -0.5591925 -0.8290378 0
vn -0.5591934 -0.8290372 0
vn -0.559193 -0.8290375 0
vn -0.559193 -0.8290375 0
vn -0.5591934 -0.8290372 0
vn -0.5591925 -0.8290378 0
vn -0.5591925 -0.8290378 0
vn -0.5591923 -0.8290381 0
vn -0.5591924 -0.8290379 0
vn -0.5591915 -0.8290385 0
vn -0.5591918 -0.8290382 0
vn -0.559193 -0.8290375 0
vn -0.5591921 -0.8290381 0
vn -0.5591938 -0.8290369 0
vn -0.5591938 -0.8290369 0
vn -0.5591921 -0.8290381 0
vn -0.559193 -0.8290375 0
vn -0.559193 -0.8290375 0
vn -0.5591921 -0.8290381 0
vn -0.5591938 -0.8290369 0
vn -0.5591938 -0.8290369 0
vn -0.5591921 -0.8290381 0
vn -0.559193 -0.8290375 0
vn -0.559193 -0.8290375 0
vn -0.5591921 -0.8290381 0
vn -0.5591938 -0.8290369 0
vn -0.5591938 -0.8290369 0
vn -0.5591938 -0.8290369 0
vn -0.5591938 -0.8290369 0

vt 0 0.15
vt 0 0.85
vt 1.465 0.15
vt 1.465 0.85
vt 1.692542 0.15
vt 1.692542 0.85
vt 1.920621 0.15
vt 1.920621 0.85
vt 2.149278 0.15
vt 2.149278 0.85
vt 2.378555 0.15
vt 2.378555 0.85
vt 2.608496 0.15
vt 2.608496 0.85
vt 2.839141 0.15
vt 2.839141 0.85
vt 3.070534 0.15
vt 3.070534 0.85
vt 3.302716 0.15
vt 3.302716 0.85
vt 3.535727 0.15
vt 3.535727 0.85
vt 3.769608 0.15
vt 3.769608 0.85
vt 4.004397 0.15
vt 4.004397 0.85
vt 4.240135 0.15
vt 4.240135 0.85
vt 4.476855 0.15
vt 4.476855 0.85
vt 4.714594 0.15
vt 4.714594 0.85
vt 4.953386 0.15
vt 4.953386 0.85
vt 5.193262 0.15
vt 5.193262 0.85
vt 5.43425 0.15
vt 5.43425 0.85
vt 5.676378 0.15
vt 5.676378 0.85
vt 5.91967 0.15
vt 5.91967 0.85
vt 6.164146 0.15
vt 6.164146 0.85
vt 6.409827 0.15
vt 6.409827 0.85
vt 6.656726 0.15
vt 6.656726 0.85
vt 6.904856 0.15
vt 6.904856 0.85
vt 7.154222 0.15
vt 7.154222 0.85
vt 7.404831 0.15
vt 7.404831 0.85
vt 7.656683 0.15
vt 7.656683 0.85
vt 7.909771 0.15
vt 7.909771 0.85
vt 8.16409 0.15
vt 8.16409 0.85
vt 8.419624 0.15
vt 8.419624 0.85
vt 8.676359 0.15
vt 8.676359 0.85
vt 8.934268 0.15
vt 8.934268 0.85
vt 9.193328 0.15
vt 9.193328 0.85
vt 9.453507 0.15
vt 9.453507 0.85
vt 9.714767 0.15
vt 9.714767 0.85
vt 9.977071 0.15
vt 9.977071 0.85
vt 10.24037 0.15
vt 10.24037 0.85
vt 10.50461 0.15
vt 10.50461 0.85
vt 10.76975 0.15
vt 10.76975 0.85
vt 11.03573 0.15
vt 11.03573 0.85
vt 11.30247 0.15
vt 11.30247 0.85
vt 11.56992 0.15
vt 11.56992 0.85
vt 11.83801 0.15
vt 11.83801 0.85
vt 12.10666 0.15
vt 12.10666 0.85
vt 12.3758 0.15
vt 12.3758 0.85
vt 12.64535 0.15
vt 12.64535 0.85
vt 12.91524 0.15
vt 12.91524 0.85
vt 13.18538 0.15
vt 13.18538 0.85
vt 13.45568 0.15
vt 13.45568 0.85
vt 13.72607 0.15
vt 13.72607 0.85
vt 13.97828 0.15
vt 13.97828 0.85
vt 14.23049 0.15
vt 14.23049 0.85
vt 14.4827 0.15
vt 14.4827 0.85
vt 14.73491 0.15
vt 14.73491 0.85
vt 14.98711 0.15
vt 14.98711 0.85
vt 15.23932 0.15
vt 15.23932 0.85
vt 15.49154 0.15
vt 15.49154 0.85
vt 15.74374 0.15
vt 15.74374 0.85
vt 15.99595 0.15
vt 15.99595 0.85
vt 16.24816 0.15
vt 16.24816 0.85
vt 16.50037 0.15
vt 16.50037 0.85
vt 16.75258 0.15
vt 16.75258 0.85
vt 17.00479 0.15
vt 17.00479 0.85
vt 17.257 0.15
vt 17.257 0.85
vt 17.50921 0.15
vt 17.50921 0.85
vt 17.76142 0.15
vt 17.76142 0.85
vt 18.01363 0.15
vt 18.01363 0.85
vt 18.26584 0.15
vt 18.26584 0.85
vt 18.51805 0.15
vt 18.51805 0.85
vt 18.77026 0.15
vt 18.77026 0.85
vt 19.02247 0.15
vt 19.02247 0.85
vt 19.27468 0.15
vt 19.27468 0.85
vt 19.52689 0.15
vt 19.52689 0.85
vt 19.7791 0.15
vt 19.7791 0.85
vt 20.03131 0.15
vt 20.03131 0.85
vt 20.28352 0.15
vt 20.28352 0.85
vt 20.53573 0.15
vt 20.53573 0.85

usemtl InrunMaterial1
usemap InrunMaterial1
f 1/1/1 4/4/4 2/2/2
f 1/1/1 3/3/3 4/4/4
f 3/3/3 6/6/6 4/4/4
f 3/3/3 5/5/5 6/6/6
f 5/5/5 8/8/8 6/6/6
f 5/5/5 7/7/7 8/8/8
f 7/7/7 10/10/10 8/8/8
f 7/7/7 9/9/9 10/10/10
f 9/9/9 12/12/12 10/10/10
f 9/9/9 11/11/11 12/12/12
f 11/11/11 14/14/14 12/12/12
f 11/11/11 13/13/13 14/14/14
f 13/13/13 16/16/16 14/14/14
f 13/13/13 15/15/15 16/16/16
f 15/15/15 18/18/18 16/16/16
f 15/15/15 17/17/17 18/18/18
f 17/17/17 20/20/20 18/18/18
f 17/17/17 19/19/19 20/20/20
f 19/19/19 22/22/22 20/20/20
f 19/19/19 21/21/21 22/22/22
f 21/21/21 24/24/24 22/22/22
f 21/21/21 23/23/23 24/24/24
f 23/23/23 26/26/26 24/24/24
f 23/23/23 25/25/25 26/26/26
f 25/25/25 28/28/28 26/26/26
f 25/25/25 27/27/27 28/28/28
f 27/27/27 30/30/30 28/28/28
f 27/27/27 29/29/29 30/30/30
f 29/29/29 32/32/32 30/30/30
f 29/29/29 31/31/31 32/32/32
f 31/31/31 34/34/34 32/32/32
f 31/31/31 33/33/33 34/34/34
f 33/33/33 36/36/36 34/34/34
f 33/33/33 35/35/35 36/36/36
f 35/35/35 38/38/38 36/36/36
f 35/35/35 37/37/37 38/38/38
f 37/37/37 40/40/40 38/38/38
f 37/37/37 39/39/39 40/40/40
f 39/39/39 42/42/42 40/40/40
f 39/39/39 41/41/41 42/42/42
f 41/41/41 44/44/44 42/42/42
f 41/41/41 43/43/43 44/44/44
f 43/43/43 46/46/46 44/44/44
f 43/43/43 45/45/45 46/46/46
f 45/45/45 48/48/48 46/46/46
f 45/45/45 47/47/47 48/48/48
f 47/47/47 50/50/50 48/48/48
f 47/47/47 49/49/49 50/50/50
f 49/49/49 52/52/52 50/50/50
f 49/49/49 51/51/51 52/52/52
f 51/51/51 54/54/54 52/52/52
f 51/51/51 53/53/53 54/54/54
f 53/53/53 56/56/56 54/54/54
f 53/53/53 55/55/55 56/56/56
f 55/55/55 58/58/58 56/56/56
f 55/55/55 57/57/57 58/58/58
f 57/57/57 60/60/60 58/58/58
f 57/57/57 59/59/59 60/60/60
f 59/59/59 62/62/62 60/60/60
f 59/59/59 61/61/61 62/62/62
f 61/61/61 64/64/64 62/62/62
f 61/61/61 63/63/63 64/64/64
f 63/63/63 66/66/66 64/64/64
f 63/63/63 65/65/65 66/66/66
f 65/65/65 68/68/68 66/66/66
f 65/65/65 67/67/67 68/68/68
f 67/67/67 70/70/70 68/68/68
f 67/67/67 69/69/69 70/70/70
f 69/69/69 72/72/72 70/70/70
f 69/69/69 71/71/71 72/72/72
f 71/71/71 74/74/74 72/72/72
f 71/71/71 73/73/73 74/74/74
f 73/73/73 76/76/76 74/74/74
f 73/73/73 75/75/75 76/76/76
f 75/75/75 78/78/78 76/76/76
f 75/75/75 77/77/77 78/78/78
f 77/77/77 80/80/80 78/78/78
f 77/77/77 79/79/79 80/80/80
f 79/79/79 82/82/82 80/80/80
f 79/79/79 81/81/81 82/82/82
f 81/81/81 84/84/84 82/82/82
f 81/81/81 83/83/83 84/84/84
f 83/83/83 86/86/86 84/84/84
f 83/83/83 85/85/85 86/86/86
f 85/85/85 88/88/88 86/86/86
f 85/85/85 87/87/87 88/88/88
f 87/87/87 90/90/90 88/88/88
f 87/87/87 89/89/89 90/90/90
f 89/89/89 92/92/92 90/90/90
f 89/89/89 91/91/91 92/92/92
f 91/91/91 94/94/94 92/92/92
f 91/91/91 93/93/93 94/94/94
f 93/93/93 96/96/96 94/94/94
f 93/93/93 95/95/95 96/96/96
f 95/95/95 98/98/98 96/96/96
f 95/95/95 97/97/97 98/98/98
f 97/97/97 100/100/100 98/98/98
f 97/97/97 99/99/99 100/100/100
f 99/99/99 102/102/102 100/100/100
f 99/99/99 101/101/101 102/102/102
f 101/101/101 104/104/104 102/102/102
f 101/101/101 103/103/103 104/104/104
f 103/103/103 106/106/106 104/104/104
f 103/103/103 105/105/105 106/106/106
f 105/105/105 108/108/108 106/106/106
f 105/105/105 107/107/107 108/108/108
f 107/107/107 110/110/110 108/108/108
f 107/107/107 109/109/109 110/110/110
f 109/109/109 112/112/112 110/110/110
f 109/109/109 111/111/111 112/112/112
f 111/111/111 114/114/114 112/112/112
f 111/111/111 113/113/113 114/114/114
f 113/113/113 116/116/116 114/114/114
f 113/113/113 115/115/115 116/116/116
f 115/115/115 118/118/118 116/116/116
f 115/115/115 117/117/117 118/118/118
f 117/117/117 120/120/120 118/118/118
f 117/117/117 119/119/119 120/120/120
f 119/119/119 122/122/122 120/120/120
f 119/119/119 121/121/121 122/122/122
f 121/121/121 124/124/124 122/122/122
f 121/121/121 123/123/123 124/124/124
f 123/123/123 126/126/126 124/124/124
f 123/123/123 125/125/125 126/126/126
f 125/125/125 128/128/128 126/126/126
f 125/125/125 127/127/127 128/128/128
f 127/127/127 130/130/130 128/128/128
f 127/127/127 129/129/129 130/130/130
f 129/129/129 132/132/132 130/130/130
f 129/129/129 131/131/131 132/132/132
f 131/131/131 134/134/134 132/132/132
f 131/131/131 133/133/133 134/134/134
f 133/133/133 136/136/136 134/134/134
f 133/133/133 135/135/135 136/136/136
f 135/135/135 138/138/138 136/136/136
f 135/135/135 137/137/137 138/138/138
f 137/137/137 140/140/140 138/138/138
f 137/137/137 139/139/139 140/140/140
f 139/139/139 142/142/142 140/140/140
f 139/139/139 141/141/141 142/142/142
f 141/141/141 144/144/144 142/142/142
f 141/141/141 143/143/143 144/144/144
f 143/143/143 146/146/146 144/144/144
f 143/143/143 145/145/145 146/146/146
f 145/145/145 148/148/148 146/146/146
f 145/145/145 147/147/147 148/148/148
f 147/147/147 150/150/150 148/148/148
f 147/147/147 149/149/149 150/150/150
f 149/149/149 152/152/152 150/150/150
f 149/149/149 151/151/151 152/152/152
f 151/151/151 154/154/154 152/152/152
f 151/151/151 153/153/153 154/154/154
f 153/153/153 156/156/156 154/154/154
f 153/153/153 155/155/155 156/156/156
